<svg xmlns="http://www.w3.org/2000/svg" xmlns:xlink="http://www.w3.org/1999/xlink" width="290.258" height="100.371" viewBox="0 0 290.258 100.371">
  <defs>
    <linearGradient id="linear-gradient" x1="0.637" y1="0.614" x2="0.213" y2="0.265" gradientUnits="objectBoundingBox">
      <stop offset="0" stop-color="#4ca2d1"/>
      <stop offset="1" stop-color="#6485c8"/>
    </linearGradient>
    <filter id="Rectangle_38" x="6.557" y="21.172" width="68.488" height="79.199" filterUnits="userSpaceOnUse">
      <feOffset dy="6" input="SourceAlpha"/>
      <feGaussianBlur stdDeviation="3" result="blur"/>
      <feFlood flood-opacity="0.161"/>
      <feComposite operator="in" in2="blur"/>
      <feComposite in="SourceGraphic"/>
    </filter>
    <linearGradient id="linear-gradient-2" x1="0.526" y1="0.7" x2="0.046" y2="1" gradientUnits="objectBoundingBox">
      <stop offset="0" stop-color="#ea5455"/>
      <stop offset="1" stop-color="#feb692"/>
    </linearGradient>
    <filter id="Rectangle_37" x="30.307" y="2.859" width="67.145" height="86.379" filterUnits="userSpaceOnUse">
      <feOffset dy="6" input="SourceAlpha"/>
      <feGaussianBlur stdDeviation="3" result="blur-2"/>
      <feFlood flood-opacity="0.161"/>
      <feComposite operator="in" in2="blur-2"/>
      <feComposite in="SourceGraphic"/>
    </filter>
    <filter id="Path_637" x="63.711" y="0" width="33.797" height="34.283" filterUnits="userSpaceOnUse">
      <feOffset dy="3" input="SourceAlpha"/>
      <feGaussianBlur stdDeviation="3" result="blur-3"/>
      <feFlood flood-opacity="0.161"/>
      <feComposite operator="in" in2="blur-3"/>
      <feComposite in="SourceGraphic"/>
    </filter>
    <filter id="Path_640" x="5.143" y="17.924" width="28.121" height="27.908" filterUnits="userSpaceOnUse">
      <feOffset dy="3" input="SourceAlpha"/>
      <feGaussianBlur stdDeviation="3" result="blur-4"/>
      <feFlood flood-opacity="0.161"/>
      <feComposite operator="in" in2="blur-4"/>
      <feComposite in="SourceGraphic"/>
    </filter>
    <linearGradient id="linear-gradient-3" x1="0.578" y1="0.275" x2="0.181" y2="0.854" gradientUnits="objectBoundingBox">
      <stop offset="0" stop-color="#e95354"/>
      <stop offset="1" stop-color="#f7957e"/>
    </linearGradient>
    <filter id="Forma_1" x="71.643" y="29.963" width="21.619" height="24.236" filterUnits="userSpaceOnUse">
      <feOffset dy="2" input="SourceAlpha"/>
      <feGaussianBlur stdDeviation="1.5" result="blur-5"/>
      <feFlood flood-opacity="0.161"/>
      <feComposite operator="in" in2="blur-5"/>
      <feComposite in="SourceGraphic"/>
    </filter>
    <filter id="Forma_1-2" x="71.381" y="59.311" width="21.619" height="24.236" filterUnits="userSpaceOnUse">
      <feOffset dy="2" input="SourceAlpha"/>
      <feGaussianBlur stdDeviation="1.5" result="blur-6"/>
      <feFlood flood-opacity="0.161"/>
      <feComposite operator="in" in2="blur-6"/>
      <feComposite in="SourceGraphic"/>
    </filter>
    <linearGradient id="linear-gradient-5" x1="0.5" x2="0.5" y2="1" gradientUnits="objectBoundingBox">
      <stop offset="0" stop-color="#ea5455"/>
      <stop offset="1" stop-color="#f6927b"/>
    </linearGradient>
    <filter id="DOC_" x="89.258" y="22.611" width="96" height="62" filterUnits="userSpaceOnUse">
      <feOffset dy="6" input="SourceAlpha"/>
      <feGaussianBlur stdDeviation="3" result="blur-7"/>
      <feFlood flood-opacity="0.161"/>
      <feComposite operator="in" in2="blur-7"/>
      <feComposite in="SourceGraphic"/>
    </filter>
    <filter id="INTACT" x="168.258" y="22.611" width="122" height="61" filterUnits="userSpaceOnUse">
      <feOffset dy="6" input="SourceAlpha"/>
      <feGaussianBlur stdDeviation="3" result="blur-8"/>
      <feFlood flood-opacity="0.161"/>
      <feComposite operator="in" in2="blur-8"/>
      <feComposite in="SourceGraphic"/>
    </filter>
  </defs>
  <g id="Group_67" data-name="Group 67" transform="translate(-10.037 -0.285)">
    <g transform="matrix(1, 0, 0, 1, 10.04, 0.29)" filter="url(#Rectangle_38)">
      <rect id="Rectangle_38-2" data-name="Rectangle 38" width="50.488" height="61.2" rx="6" transform="translate(15.56 24.17)" fill="url(#linear-gradient)"/>
    </g>
    <path id="Forma_1-3" data-name="Forma 1" d="M36.6,43.6a4.181,4.181,0,0,1,1.181-2.908L37.135,39.4H28.011V45H0V19.794H28.011v5.6h9.125l.647-1.293A4.193,4.193,0,1,1,40.8,25.4a4.131,4.131,0,0,1-.509-.051L38.867,28.2H28.011V31H39.66a4.2,4.2,0,1,1,0,2.8H28.011V31h-5.6V28.2h-1.4a1.4,1.4,0,0,1-1.4-1.4V25.4H8.4v1.4A1.4,1.4,0,0,1,7,28.2H5.6v8.4H7A1.4,1.4,0,0,1,8.4,38v1.4h11.2V38a1.4,1.4,0,0,1,1.4-1.4h1.4V33.8h5.6v2.8H38.867l1.426,2.852A4.146,4.146,0,0,1,40.8,39.4a4.2,4.2,0,1,1-4.2,4.2Zm-25.636-7A4.222,4.222,0,0,0,8.4,34.039v-3.28A4.222,4.222,0,0,0,10.965,28.2h6.081a4.222,4.222,0,0,0,2.562,2.562v3.28A4.222,4.222,0,0,0,17.046,36.6Zm8.643-19.608V11.2a5.6,5.6,0,0,0-11.2,0v5.789H2.8V11.2a11.2,11.2,0,0,1,22.409,0v5.789Z" transform="translate(10.037 33)" fill="#fff" opacity="0.14"/>
    <g transform="matrix(1, 0, 0, 1, 10.04, 0.29)" filter="url(#Rectangle_37)">
      <rect id="Rectangle_37-2" data-name="Rectangle 37" width="49.145" height="68.379" rx="6" transform="translate(39.31 5.86)" fill="url(#linear-gradient-2)"/>
    </g>
    <g transform="matrix(1, 0, 0, 1, 10.04, 0.29)" filter="url(#Path_637)">
      <path id="Path_637-2" data-name="Path 637" d="M2816.178,351l15.655,16.281h-12.78s-2.556.171-2.876-4.456S2816.178,351,2816.178,351Z" transform="translate(-2743.33 -345)" fill="#fff"/>
    </g>
    <g transform="matrix(1, 0, 0, 1, 10.04, 0.29)" filter="url(#Path_640)">
      <path id="Path_640-2" data-name="Path 640" d="M.077,0,8.514,8.775H1.626S.249,8.867.077,6.373.077,0,.077,0Z" transform="matrix(-0.17, -0.98, 0.98, -0.17, 15.62, 33.83)" fill="#fff"/>
    </g>
    <path id="Forma_1-4" data-name="Forma 1" d="M44.087,29.368a9.309,9.309,0,0,0-7.365,3.654L18.632,26.07c.018-.237.072-.465.072-.707a9.2,9.2,0,0,0-.133-1.311L37.109,15.5a9.3,9.3,0,1,0-2.373-6.158,9.205,9.205,0,0,0,.133,1.311l-18.537,8.55a9.343,9.343,0,1,0,.386,11.848l18.09,6.952c-.018.237-.072.465-.072.707a9.352,9.352,0,1,0,9.352-9.344Z" transform="translate(49.344 30.481)" fill="#fff"/>
    <g id="Group_63" data-name="Group 63" transform="translate(53.134 68.22) rotate(-90)" opacity="0.15">
      <g id="Group_1" data-name="Group 1" transform="translate(1.445 17.171)">
        <path id="Path_1" data-name="Path 1" d="M12.3,11.839H7.352a.472.472,0,0,1-.328-.133L.142,5.011A.468.468,0,0,1,0,4.674V.469a.47.47,0,0,1,.94,0V4.477l6.6,6.422H12.3a.47.47,0,1,1,0,.94Z" transform="translate(0 0)" fill="#fff"/>
      </g>
      <g id="Group_2" data-name="Group 2" transform="translate(2.329 7.156)">
        <path id="Path_2" data-name="Path 2" d="M5.035,10.655H5.03a.469.469,0,0,1-.464-.475l.069-6.293L.2.857A.469.469,0,0,1,.734.082L5.372,3.254a.469.469,0,0,1,.2.392L5.506,10.19A.47.47,0,0,1,5.035,10.655Z" transform="translate(0 0)" fill="#fff"/>
      </g>
      <g id="Group_3" data-name="Group 3" transform="translate(11.128 5.11)">
        <path id="Path_3" data-name="Path 3" d="M11.819,21.818a.463.463,0,0,1-.335-.142L2.549,12.523a.472.472,0,0,1-.134-.321L2.268,2.443.184.842A.469.469,0,0,1,.755.1L3.02,1.837A.472.472,0,0,1,3.2,2.2L3.352,12l8.8,9.019a.469.469,0,0,1-.336.8Z" transform="translate(0 0)" fill="#fff"/>
      </g>
      <g id="Group_5" data-name="Group 5" transform="translate(20.582 11.441)">
        <path id="Path_5" data-name="Path 5" d="M16.044,18.211a.473.473,0,0,1-.3-.113L.315,4.94A.468.468,0,0,1,.151,4.6L0,.486A.469.469,0,0,1,.453,0,.478.478,0,0,1,.939.452l.142,3.907L16.2,17.259,19.825,17l.131-2.911a.47.47,0,0,1,.151-.324l3.64-3.35a.47.47,0,1,1,.636.691l-3.5,3.218-.142,3.135a.47.47,0,0,1-.436.447l-4.231.3Z" transform="translate(0 0)" fill="#fff"/>
      </g>
      <g id="Group_6" data-name="Group 6" transform="translate(28.299 9.231)">
        <path id="Path_6" data-name="Path 6" d="M7.372,10.891H4.317a.468.468,0,0,1-.311-.119L.378,7.557A.468.468,0,0,1,.22,7.222L0,.485A.468.468,0,0,1,.453,0H.469A.468.468,0,0,1,.938.454l.214,6.535L4.494,9.951H7.372a.47.47,0,0,1,0,.94Z" transform="translate(0 0)" fill="#fff"/>
      </g>
      <g id="Group_8" data-name="Group 8" transform="translate(23.182 1.482)">
        <path id="Path_8" data-name="Path 8" d="M24.75,26.216a.47.47,0,0,1-.32-.813l8.608-8.037-.286-8.254L30.431,6.245l-11.25.746a.471.471,0,0,1-.394-.171l-4.7-5.733L.464.94A.47.47,0,0,1,0,.464.507.507,0,0,1,.475,0L14.319.15a.475.475,0,0,1,.358.172L19.36,6.037l11.251-.746a.472.472,0,0,1,.4.173L33.58,8.643a.469.469,0,0,1,.1.28l.3,8.625a.469.469,0,0,1-.149.36L25.071,26.09A.472.472,0,0,1,24.75,26.216Z" transform="translate(0 0)" fill="#fff"/>
      </g>
      <g id="Group_9" data-name="Group 9" transform="translate(38.009 13.108)">
        <path id="Path_9" data-name="Path 9" d="M11.783.939H.469A.469.469,0,0,1,.469,0H11.783a.469.469,0,1,1,0,.939Z" transform="translate(0 0)" fill="#fff"/>
      </g>
      <g id="Group_12" data-name="Group 12" transform="translate(13.272 26.48)">
        <g id="Group_10" data-name="Group 10" transform="translate(0.469 0.47)">
          <path id="Path_10" data-name="Path 10" d="M1.511,3.03A1.515,1.515,0,1,1,3.028,1.52,1.511,1.511,0,0,1,1.511,3.03Z" transform="translate(0 0)" fill="#fff"/>
        </g>
        <g id="Group_11" data-name="Group 11" transform="translate(0 0)">
          <path id="Path_11" data-name="Path 11" d="M1.98,3.97A1.985,1.985,0,1,1,3.967,1.99,1.982,1.982,0,0,1,1.98,3.97Zm0-3.03A1.046,1.046,0,1,0,3.028,1.99,1.046,1.046,0,0,0,1.98.94Z" transform="translate(0 0)" fill="#fff"/>
        </g>
      </g>
      <g id="Group_15" data-name="Group 15" transform="translate(0 14.141)">
        <g id="Group_13" data-name="Group 13" transform="translate(0.469 0.47)">
          <path id="Path_12" data-name="Path 12" d="M1.517,3.029a1.515,1.515,0,1,1,1.511-1.51A1.512,1.512,0,0,1,1.517,3.029Z" transform="translate(0 0)" fill="#fff"/>
        </g>
        <g id="Group_14" data-name="Group 14" transform="translate(0 0)">
          <path id="Path_13" data-name="Path 13" d="M1.986,3.969a1.984,1.984,0,1,1,1.98-1.98A1.985,1.985,0,0,1,1.986,3.969Zm0-3.029A1.045,1.045,0,1,0,3.027,1.989,1.049,1.049,0,0,0,1.986.94Z" transform="translate(0 0)" fill="#fff"/>
        </g>
      </g>
      <g id="Group_18" data-name="Group 18" transform="translate(5.208 16.857)">
        <g id="Group_16" data-name="Group 16" transform="translate(0.469 0.469)">
          <path id="Path_14" data-name="Path 14" d="M1.51,3.031A1.515,1.515,0,1,1,3.028,1.512,1.518,1.518,0,0,1,1.51,3.031Z" transform="translate(0 0)" fill="#fff"/>
        </g>
        <g id="Group_17" data-name="Group 17" transform="translate(0 0)">
          <path id="Path_15" data-name="Path 15" d="M1.979,3.97A1.985,1.985,0,1,1,3.967,1.981,1.986,1.986,0,0,1,1.979,3.97Zm0-3.03A1.045,1.045,0,1,0,3.027,1.981,1.041,1.041,0,0,0,1.979.94Z" fill="#fff"/>
        </g>
      </g>
      <g id="Group_21" data-name="Group 21" transform="translate(0.605 4.141)">
        <g id="Group_19" data-name="Group 19" transform="translate(0.469 0.469)">
          <path id="Path_16" data-name="Path 16" d="M1.51,3.028A1.514,1.514,0,1,1,3.021,1.511,1.512,1.512,0,0,1,1.51,3.028Z" transform="translate(0 0)" fill="#fff"/>
        </g>
        <g id="Group_20" data-name="Group 20" transform="translate(0 0)">
          <path id="Path_17" data-name="Path 17" d="M1.979,3.968A1.984,1.984,0,1,1,3.959,1.98,1.986,1.986,0,0,1,1.979,3.968Zm0-3.029A1.045,1.045,0,1,0,3.02,1.98,1.041,1.041,0,0,0,1.979.939Z" fill="#fff"/>
        </g>
      </g>
      <g id="Group_33" data-name="Group 33" transform="translate(20.161 0)">
        <g id="Group_31" data-name="Group 31" transform="translate(0.469 0.47)">
          <path id="Path_24" data-name="Path 24" d="M1.512,3.022A1.511,1.511,0,1,1,3.021,1.511,1.512,1.512,0,0,1,1.512,3.022Z" transform="translate(0 0)" fill="#fff"/>
        </g>
        <g id="Group_32" data-name="Group 32" transform="translate(0 0)">
          <path id="Path_25" data-name="Path 25" d="M1.981,3.962A1.981,1.981,0,1,1,3.959,1.981,1.983,1.983,0,0,1,1.981,3.962Zm0-3.023A1.042,1.042,0,1,0,3.021,1.981,1.042,1.042,0,0,0,1.981.94Z" fill="#fff"/>
        </g>
      </g>
      <g id="Group_36" data-name="Group 36" transform="translate(8.165 2.852)">
        <g id="Group_34" data-name="Group 34" transform="translate(0.469 0.469)">
          <path id="Path_26" data-name="Path 26" d="M1.51,3.029A1.515,1.515,0,1,1,3.021,1.518,1.511,1.511,0,0,1,1.51,3.029Z" transform="translate(0 0)" fill="#fff"/>
        </g>
        <g id="Group_35" data-name="Group 35" transform="translate(0 0)">
          <path id="Path_27" data-name="Path 27" d="M1.979,3.969a1.984,1.984,0,1,1,1.98-1.982A1.983,1.983,0,0,1,1.979,3.969Zm0-3.03A1.045,1.045,0,1,0,3.02,1.987,1.045,1.045,0,0,0,1.979.939Z" transform="translate(0 0)" fill="#fff"/>
        </g>
      </g>
      <g id="Group_39" data-name="Group 39" transform="translate(18.929 8.418)">
        <g id="Group_37" data-name="Group 37" transform="translate(0.469 0.47)">
          <path id="Path_28" data-name="Path 28" d="M1.519,3.031a1.515,1.515,0,1,1,1.51-1.518A1.52,1.52,0,0,1,1.519,3.031Z" transform="translate(0 0)" fill="#fff"/>
        </g>
        <g id="Group_38" data-name="Group 38" transform="translate(0 0)">
          <path id="Path_29" data-name="Path 29" d="M1.988,3.97A1.985,1.985,0,1,1,3.967,1.982,1.991,1.991,0,0,1,1.988,3.97Zm0-3.031A1.046,1.046,0,1,0,3.028,1.982,1.047,1.047,0,0,0,1.988.939Z" transform="translate(0 0)" fill="#fff"/>
        </g>
      </g>
      <g id="Group_42" data-name="Group 42" transform="translate(26.852 6.209)">
        <g id="Group_40" data-name="Group 40" transform="translate(0.469 0.469)">
          <path id="Path_30" data-name="Path 30" d="M1.511,3.028A1.514,1.514,0,1,1,3.021,1.51,1.518,1.518,0,0,1,1.511,3.028Z" transform="translate(0 0)" fill="#fff"/>
        </g>
        <g id="Group_41" data-name="Group 41" transform="translate(0 0)">
          <path id="Path_31" data-name="Path 31" d="M1.98,3.967A1.984,1.984,0,1,1,3.959,1.98,1.986,1.986,0,0,1,1.98,3.967ZM1.98.94A1.044,1.044,0,1,0,3.02,1.98,1.042,1.042,0,0,0,1.98.94Z" fill="#fff"/>
        </g>
      </g>
      <g id="Group_45" data-name="Group 45" transform="translate(34.982 11.633)">
        <g id="Group_43" data-name="Group 43" transform="translate(0.469 0.469)">
          <path id="Path_32" data-name="Path 32" d="M1.517,3.023a1.512,1.512,0,1,1,1.51-1.512A1.513,1.513,0,0,1,1.517,3.023Z" transform="translate(0 0)" fill="#fff"/>
        </g>
        <g id="Group_44" data-name="Group 44" transform="translate(0 0)">
          <path id="Path_33" data-name="Path 33" d="M1.986,3.962A1.981,1.981,0,1,1,3.967,1.98,1.986,1.986,0,0,1,1.986,3.962Zm0-3.023A1.042,1.042,0,1,0,3.027,1.98,1.046,1.046,0,0,0,1.986.939Z" fill="#fff"/>
        </g>
      </g>
      <g id="Group_48" data-name="Group 48" transform="translate(49.322 11.561)">
        <g id="Group_46" data-name="Group 46" transform="translate(0.469 0.469)">
          <path id="Path_34" data-name="Path 34" d="M1.511,3.024a1.512,1.512,0,1,1,1.51-1.513A1.512,1.512,0,0,1,1.511,3.024Z" transform="translate(0 0)" fill="#fff"/>
        </g>
        <g id="Group_47" data-name="Group 47" transform="translate(0 0)">
          <path id="Path_35" data-name="Path 35" d="M1.98,3.963A1.982,1.982,0,1,1,3.959,1.98,1.984,1.984,0,0,1,1.98,3.963ZM1.98.94A1.042,1.042,0,1,0,3.021,1.98,1.042,1.042,0,0,0,1.98.94Z" fill="#fff"/>
        </g>
      </g>
      <g id="Group_51" data-name="Group 51" transform="translate(44.899 26.331)">
        <g id="Group_49" data-name="Group 49" transform="translate(0.469 0.47)">
          <path id="Path_36" data-name="Path 36" d="M1.509,3.028A1.514,1.514,0,1,1,3.021,1.511,1.513,1.513,0,0,1,1.509,3.028Z" transform="translate(0 0)" fill="#fff"/>
        </g>
        <g id="Group_50" data-name="Group 50" transform="translate(0 0)">
          <path id="Path_37" data-name="Path 37" d="M1.978,3.968A1.984,1.984,0,1,1,3.959,1.981,1.985,1.985,0,0,1,1.978,3.968Zm0-3.028A1.045,1.045,0,1,0,3.021,1.981,1.041,1.041,0,0,0,1.978.94Z" fill="#fff"/>
        </g>
      </g>
      <g id="Group_54" data-name="Group 54" transform="translate(43.901 19.339)">
        <g id="Group_52" data-name="Group 52" transform="translate(0.47 0.469)">
          <path id="Path_38" data-name="Path 38" d="M1.509,3.028A1.514,1.514,0,1,1,3.02,1.51,1.512,1.512,0,0,1,1.509,3.028Z" transform="translate(0 0)" fill="#fff"/>
        </g>
        <g id="Group_53" data-name="Group 53" transform="translate(0 0)">
          <path id="Path_39" data-name="Path 39" d="M1.979,3.968A1.984,1.984,0,1,1,3.96,1.98,1.987,1.987,0,0,1,1.979,3.968Zm0-3.029A1.045,1.045,0,1,0,3.021,1.98,1.041,1.041,0,0,0,1.979.939Z" fill="#fff"/>
        </g>
      </g>
      <g id="Group_57" data-name="Group 57" transform="translate(35.193 17.77)">
        <g id="Group_55" data-name="Group 55" transform="translate(0.47 0.47)">
          <path id="Path_40" data-name="Path 40" d="M1.518,3.023a1.511,1.511,0,1,1,1.51-1.512A1.514,1.514,0,0,1,1.518,3.023Z" transform="translate(0 0)" fill="#fff"/>
        </g>
        <g id="Group_56" data-name="Group 56" transform="translate(0 0)">
          <path id="Path_41" data-name="Path 41" d="M1.988,3.962A1.981,1.981,0,1,1,3.968,1.98,1.987,1.987,0,0,1,1.988,3.962Zm0-3.022A1.041,1.041,0,1,0,3.028,1.98,1.046,1.046,0,0,0,1.988.94Z" transform="translate(0 0)" fill="#fff"/>
        </g>
      </g>
      <g id="Group_60" data-name="Group 60" transform="translate(22.214 25.333)">
        <g id="Group_58" data-name="Group 58" transform="translate(0.469 0.469)">
          <path id="Path_42" data-name="Path 42" d="M1.511,3.028A1.514,1.514,0,1,1,3.028,1.512,1.512,1.512,0,0,1,1.511,3.028Z" transform="translate(0 0)" fill="#fff"/>
        </g>
        <g id="Group_59" data-name="Group 59" transform="translate(0 0)">
          <path id="Path_43" data-name="Path 43" d="M1.98,3.968A1.984,1.984,0,1,1,3.967,1.981,1.986,1.986,0,0,1,1.98,3.968Zm0-3.029A1.045,1.045,0,1,0,3.027,1.981,1.042,1.042,0,0,0,1.98.939Z" fill="#fff"/>
        </g>
      </g>
    </g>
    <g transform="matrix(1, 0, 0, 1, 10.04, 0.29)" filter="url(#Forma_1)">
      <path id="Forma_1-5" data-name="Forma 1" d="M12.643,2.381A8.431,8.431,0,0,1,6.368,0,8.43,8.43,0,0,1,.093,2.381c0,4.265-.882,10.374,6.275,12.856C13.526,12.755,12.643,6.645,12.643,2.381Z" transform="translate(76.08 32.46)" fill="url(#linear-gradient-3)"/>
    </g>
    <g transform="matrix(1, 0, 0, 1, 10.04, 0.29)" filter="url(#Forma_1-2)">
      <path id="Forma_1-6" data-name="Forma 1" d="M12.643,2.381A8.431,8.431,0,0,1,6.368,0,8.43,8.43,0,0,1,.093,2.381c0,4.265-.882,10.374,6.275,12.856C13.526,12.755,12.643,6.645,12.643,2.381Z" transform="translate(75.82 61.81)" fill="url(#linear-gradient-3)"/>
    </g>
    <path id="Path_638" data-name="Path 638" d="M354.026,309.56H353.6a2.69,2.69,0,1,0-5.352,0h-.423c-.622,0-.829.232-.829.854v3.944c0,.622.206,1.209.829,1.209h6.2a1.1,1.1,0,0,0,1.007-1.209v-3.944C355.033,309.792,354.648,309.56,354.026,309.56Zm-2.394,4.805h-1.408l.27-1.968a.967.967,0,0,1-.464-.828.923.923,0,0,1,.907-.925.9.9,0,0,1,.907.9,1.02,1.02,0,0,1-.481.87ZM349.1,309.56c0-1.727.92-2.113,1.831-2.113s1.831.386,1.831,2.113Z" transform="translate(-258.415 -270.912)" fill="#fff"/>
    <g id="Group_64" data-name="Group 64" transform="translate(87.006 65.125)">
      <path id="Path_2-2" data-name="Path 2" d="M331.361,359.336a3.629,3.629,0,0,0-4.08-5.866l.844.889c.029.031-.07-.083-.077-.042.042-.068.019.058-2.418.461l-.086.086-.069.13a3.76,3.76,0,0,0,.656,4.437,3.8,3.8,0,0,0,.787.6l.025-.025a.135.135,0,0,1,.158-.024c.061.032.122.062.184.09h0l.019.009c.058.026.117.051.177.074h0l.017.007a3.608,3.608,0,0,0,.406.128l.01,0h0q.091.023.185.04h0l.055.01.148.023h0l.067.009c.049.006.1.01.148.014l.064,0h0c.07,0,.14.006.21.006A3.615,3.615,0,0,0,331.361,359.336Z" transform="translate(-323.53 -351.531)" fill="url(#linear-gradient-5)"/>
      <path id="Path_3-2" data-name="Path 3" d="M2.4,9.058a.147.147,0,0,0-.172.026L2.2,9.112l-.611.615,0,0a.146.146,0,0,0,.029.229A5.107,5.107,0,0,0,9.336,5.576h0A5.1,5.1,0,0,0,1.75,1.115L.734.046a.146.146,0,0,0-.251.08L.1,2.838.07,3.068,0,3.56a.146.146,0,0,0,.168.165l.462-.073.113-.018L.892,3.61l2.529-.4a.145.145,0,0,0,.091-.054.259.259,0,0,1,.029-.067A.146.146,0,0,0,3.5,2.963L2.589,2a3.935,3.935,0,1,1,1.64,7.512c-.076,0-.152,0-.228-.007H4L3.933,9.5c-.054,0-.107-.009-.16-.015L3.7,9.475h0c-.054-.007-.107-.016-.16-.025l-.06-.011h0q-.1-.019-.2-.044h0l-.011,0a3.93,3.93,0,0,1-.44-.139l-.019-.007h0c-.065-.025-.129-.052-.192-.08l-.021-.009h0Q2.494,9.109,2.4,9.058Z" transform="matrix(0.07, 0.998, -0.998, 0.07, 10.656, 0)" fill="#fff"/>
      <path id="Path_4" data-name="Path 4" d="M513.706,427.56a.4.4,0,0,0-.3.128.246.246,0,0,0-.041.07.206.206,0,0,0-.015.075v2.448a.241.241,0,0,0,.1.188l2.615,2.072c.138.108.255,0,.4-.1a.228.228,0,0,0,.009-.384l-2.4-1.881v-2.338C514.067,427.682,513.905,427.56,513.706,427.56Z" transform="translate(-509.487 -425.817)" fill="#fff"/>
    </g>
    <g transform="matrix(1, 0, 0, 1, 10.04, 0.29)" filter="url(#DOC_)">
      <text id="DOC_2" data-name="DOC " transform="translate(98.26 61.61)" fill="#4ca2d1" font-size="33" font-family="SegoeUI, Segoe UI"><tspan x="0" y="0">DOC </tspan></text>
    </g>
    <g transform="matrix(1, 0, 0, 1, 10.04, 0.29)" filter="url(#INTACT)">
      <text id="INTACT-2" data-name="INTACT" transform="translate(177.26 60.61)" fill="#ea5455" font-size="32" font-family="SegoeUI, Segoe UI"><tspan x="0" y="0">INTACT</tspan></text>
    </g>
  </g>
</svg>
