<svg xmlns="http://www.w3.org/2000/svg" width="194.27" height="127.537" viewBox="0 0 194.27 127.537">
  <g id="Group_1911" data-name="Group 1911" transform="translate(0 -6.676)">
    <g id="Group_1799" data-name="Group 1799" transform="translate(0 6.676)">
      <g id="Group_1770" data-name="Group 1770" transform="translate(21.538 89.557)">
        <path id="Path_5045" data-name="Path 5045" d="M96.771,345.365l2.9,25.1h3.031v-25.1Z" transform="translate(-96.771 -345.365)" fill="#ff8e5c"/>
        <path id="Path_5046" data-name="Path 5046" d="M115.036,345.365l-2.9,25.1H109.1v-25.1Z" transform="translate(-103.166 -345.365)" fill="#ff8548"/>
      </g>
      <g id="Group_1771" data-name="Group 1771" transform="translate(20.934)">
        <path id="Path_5047" data-name="Path 5047" d="M95.518,165.844a6.524,6.524,0,0,0,6.51,6.524V159.32A6.524,6.524,0,0,0,95.518,165.844Z" transform="translate(-95.518 -159.32)" fill="#352011"/>
        <path id="Path_5048" data-name="Path 5048" d="M109.056,159.319h-.014v13.048h.014a6.525,6.525,0,0,0,0-13.049Z" transform="translate(-102.532 -159.319)" fill="#2b190e"/>
      </g>
      <g id="Group_1772" data-name="Group 1772" transform="translate(22.367 3.569)">
        <path id="Path_5049" data-name="Path 5049" d="M98.5,171.824a5.091,5.091,0,0,0,5.08,5.091V166.734A5.091,5.091,0,0,0,98.5,171.824Z" transform="translate(-98.495 -166.734)" fill="#bc3535"/>
        <path id="Path_5050" data-name="Path 5050" d="M109.059,166.733h-.011v10.181h.011a5.091,5.091,0,1,0,0-10.182Z" transform="translate(-103.968 -166.733)" fill="#b72323"/>
      </g>
      <g id="Group_1773" data-name="Group 1773" transform="translate(15.212 5.042)">
        <path id="Path_5051" data-name="Path 5051" d="M83.631,179.5v6.918c0,5.364,5.483,9.712,12.246,9.712h0V169.793C89.114,169.793,83.631,174.141,83.631,179.5Z" transform="translate(-83.631 -169.793)" fill="#492b16"/>
        <path id="Path_5052" data-name="Path 5052" d="M109.127,169.794h-.056v26.342c6.764,0,12.247-4.348,12.247-9.712V179.5C121.318,174.156,115.865,169.818,109.127,169.794Z" transform="translate(-96.825 -169.793)" fill="#3f2514"/>
      </g>
      <g id="Group_1774" data-name="Group 1774" transform="translate(13.621 20.936)">
        <path id="Path_5053" data-name="Path 5053" d="M86.319,205.807a3,3,0,1,1-3-3A3,3,0,0,1,86.319,205.807Z" transform="translate(-80.326 -202.811)" fill="#ff884d"/>
        <path id="Path_5054" data-name="Path 5054" d="M131.419,205.807a3,3,0,1,1-3-3A3,3,0,0,1,131.419,205.807Z" transform="translate(-103.716 -202.811)" fill="#f58243"/>
      </g>
      <g id="Group_1775" data-name="Group 1775" transform="translate(14.594 66.908)">
        <path id="Path_5055" data-name="Path 5055" d="M87.039,329.315h8.186v-31h0c-7.113,0-12.879,1.268-12.879,11.856A45.466,45.466,0,0,0,87.039,329.315Z" transform="translate(-82.346 -298.314)" fill="#383944"/>
        <path id="Path_5056" data-name="Path 5056" d="M117.287,329.315a45.459,45.459,0,0,0,4.693-19.145c0-10.588-5.766-11.856-12.879-11.856v31Z" transform="translate(-96.222 -298.314)" fill="#2d2e38"/>
      </g>
      <g id="Group_1783" data-name="Group 1783" transform="translate(0 2.322)">
        <g id="Group_1776" data-name="Group 1776" transform="translate(36.816 51.303)">
          <path id="Path_5057" data-name="Path 5057" d="M134.565,321.41a1.34,1.34,0,0,0,1.2-.736l1.638-3.238a1.34,1.34,0,1,0-2.392-1.21l-1.638,3.238a1.341,1.341,0,0,0,1.195,1.945Z" transform="translate(-130.956 -293.939)" fill="#f58243"/>
          <path id="Path_5058" data-name="Path 5058" d="M135.321,308.7v2.738l-.019,5.143-1.076,2.193a.79.79,0,0,1-.64.41,1.277,1.277,0,0,1-.168.011,1.659,1.659,0,0,1-.722-.177,1.726,1.726,0,0,1-.335-.218h0a.98.98,0,0,1-.408-1.142l.353-.719v-4.972a.6.6,0,0,0-1.191,0v3.015c0,.5-.572.893-1.3.893s-1.3-.392-1.3-.893V308.7Z" transform="translate(-128.51 -290.419)" fill="#ff8548"/>
          <rect id="Rectangle_1103" data-name="Rectangle 1103" width="6.812" height="1.346" transform="translate(6.812 19.599) rotate(180)" fill="#fff"/>
          <path id="Path_5059" data-name="Path 5059" d="M128.51,287.767V270.72h6.812V289H128.51Z" transform="translate(-128.51 -270.72)" fill="#383944"/>
        </g>
        <g id="Group_1778" data-name="Group 1778">
          <path id="Path_5060" data-name="Path 5060" d="M108.981,238.4l-.112,0v31.413h10.869V254.105h5.4A15.936,15.936,0,0,0,108.981,238.4Z" transform="translate(-81.508 -202.653)" fill="#383944"/>
          <rect id="Rectangle_1104" data-name="Rectangle 1104" width="11.051" height="33.345" transform="translate(16.422 33.816)" fill="#43444f"/>
          <g id="Group_1777" data-name="Group 1777">
            <path id="Path_5061" data-name="Path 5061" d="M55.706,167.027a1.422,1.422,0,0,0-1.27.781L52.7,171.245a1.423,1.423,0,0,0,2.539,1.284l1.738-3.437a1.423,1.423,0,0,0-1.268-2.065Z" transform="translate(-52.296 -165.638)" fill="#ff884d"/>
            <path id="Path_5062" data-name="Path 5062" d="M52.052,175.281v-2.906l.021-5.458,1.142-2.327a.839.839,0,0,1,.679-.436,1.347,1.347,0,0,1,.178-.012,1.754,1.754,0,0,1,.766.188,1.834,1.834,0,0,1,.356.231h0a1.04,1.04,0,0,1,.432,1.213l-.374.762v5.278a.632.632,0,0,0,1.264,0v-3.2c0-.532.607-.948,1.383-.948s1.383.416,1.383.948v6.668Z" transform="translate(-52.041 -164.142)" fill="#ff8e5c"/>
            <rect id="Rectangle_1105" data-name="Rectangle 1105" width="7.23" height="1.428" transform="translate(7.241 11.171) rotate(180)" fill="#fff"/>
            <path id="Path_5063" data-name="Path 5063" d="M68.625,231.813l-16.6-10.922v-9.178l16.6,10.922Z" transform="translate(-52.029 -188.814)" fill="#43444f"/>
            <path id="Path_5064" data-name="Path 5064" d="M59.27,187.282H52.04V205.32h-.011c0,.071.008.14.011.211v.172h.009a4.606,4.606,0,0,0,4.573,4.2H59.27Z" transform="translate(-52.029 -176.143)" fill="#43444f"/>
            <path id="Path_5065" data-name="Path 5065" d="M55.45,177.68v-1.44a.633.633,0,0,1-.632-.632v-3.2c0-.532-.607-.948-1.382-.948s-1.383.416-1.383.948v5.272Z" transform="translate(-52.041 -167.937)" fill="#ff8e5c"/>
          </g>
        </g>
        <g id="Group_1779" data-name="Group 1779" transform="translate(23.043 35.951)">
          <rect id="Rectangle_1106" data-name="Rectangle 1106" width="4.318" height="31.209" fill="#fff"/>
          <rect id="Rectangle_1107" data-name="Rectangle 1107" width="4.318" height="31.209" transform="translate(4.318)" fill="#f2f2f2"/>
        </g>
        <g id="Group_1780" data-name="Group 1780" transform="translate(23.043 27.779)">
          <path id="Path_5066" data-name="Path 5066" d="M108.869,221.85h0v12.656h0a4.193,4.193,0,0,0,4.318-4.056v-4.545A4.192,4.192,0,0,0,108.869,221.85Z" transform="translate(-104.551 -221.85)" fill="#f58243"/>
          <path id="Path_5067" data-name="Path 5067" d="M99.9,225.905v4.545a4.193,4.193,0,0,0,4.318,4.056V221.85A4.193,4.193,0,0,0,99.9,225.905Z" transform="translate(-99.899 -221.85)" fill="#ff884d"/>
        </g>
        <g id="Group_1781" data-name="Group 1781" transform="translate(17.938 30.848)">
          <path id="Path_5068" data-name="Path 5068" d="M89.294,236.09v9.918a8.8,8.8,0,0,0,5.1,7.866V228.225A8.8,8.8,0,0,0,89.294,236.09Z" transform="translate(-89.294 -228.225)" fill="#383944"/>
        </g>
        <g id="Group_1782" data-name="Group 1782" transform="translate(31.679 30.848)">
          <path id="Path_5069" data-name="Path 5069" d="M122.944,236.09v9.918a8.8,8.8,0,0,1-5.1,7.866V228.225A8.8,8.8,0,0,1,122.944,236.09Z" transform="translate(-117.839 -228.225)" fill="#2d2e38"/>
        </g>
      </g>
      <g id="Group_1784" data-name="Group 1784" transform="translate(23.155 30.105)">
        <path id="Path_5070" data-name="Path 5070" d="M109.1,221.86h0v12.656h0a4.193,4.193,0,0,0,4.318-4.056v-4.545A4.193,4.193,0,0,0,109.1,221.86Z" transform="translate(-104.783 -221.86)" fill="#f58243"/>
        <path id="Path_5071" data-name="Path 5071" d="M100.131,225.916v4.545a4.193,4.193,0,0,0,4.318,4.056V221.86A4.193,4.193,0,0,0,100.131,225.916Z" transform="translate(-100.131 -221.86)" fill="#ff884d"/>
      </g>
      <g id="Group_1785" data-name="Group 1785" transform="translate(16.604 9.633)">
        <path id="Path_5072" data-name="Path 5072" d="M97.391,207.769a10.682,10.682,0,0,1-10.869-10.485v-7.468a10.682,10.682,0,0,1,10.869-10.485Z" transform="translate(-86.522 -179.331)" fill="#ff8e5c"/>
        <path id="Path_5073" data-name="Path 5073" d="M107.176,179.331v12.288l-1.787,4.865h1.787v11.285h0a10.682,10.682,0,0,0,10.869-10.485v-7.468A10.724,10.724,0,0,0,107.176,179.331Z" transform="translate(-96.307 -179.331)" fill="#ff8548"/>
      </g>
      <g id="Group_1786" data-name="Group 1786" transform="translate(32.327 20.56)">
        <path id="Path_5074" data-name="Path 5074" d="M120.956,202.632l.525-.6a1.17,1.17,0,0,0,0,.9h-.007a1.364,1.364,0,0,1,.458,1.017h-2.746a1.355,1.355,0,0,1,1.771-1.307Z" transform="translate(-119.186 -202.03)" fill="#492913"/>
      </g>
      <g id="Group_1789" data-name="Group 1789" transform="translate(21.791 28.79)">
        <g id="Group_1787" data-name="Group 1787">
          <path id="Path_5075" data-name="Path 5075" d="M97.3,219.128a5.959,5.959,0,0,0,2.171,3.016,4.4,4.4,0,0,1,3.511-1.7v-1.315Z" transform="translate(-97.297 -219.128)" fill="#a32929"/>
          <path id="Path_5076" data-name="Path 5076" d="M109.1,219.128v1.315a4.4,4.4,0,0,1,3.511,1.7,5.959,5.959,0,0,0,2.171-3.016Z" transform="translate(-103.419 -219.128)" fill="#a01c1c"/>
        </g>
        <g id="Group_1788" data-name="Group 1788" transform="translate(2.171 1.315)">
          <path id="Path_5077" data-name="Path 5077" d="M112.612,223.561a4.4,4.4,0,0,0-3.511-1.7h0v2.854h0A5.921,5.921,0,0,0,112.612,223.561Z" transform="translate(-105.59 -221.86)" fill="#b72323"/>
          <path id="Path_5078" data-name="Path 5078" d="M101.807,223.561a5.919,5.919,0,0,0,3.511,1.152V221.86A4.4,4.4,0,0,0,101.807,223.561Z" transform="translate(-101.807 -221.86)" fill="#bc3535"/>
        </g>
        <path id="Path_5079" data-name="Path 5079" d="M102.979,219.128H97.3a5.851,5.851,0,0,0,.406.968h5.276Z" transform="translate(-97.297 -219.128)" fill="#fff"/>
        <path id="Path_5080" data-name="Path 5080" d="M109.1,220.1h5.276a5.851,5.851,0,0,0,.406-.968H109.1Z" transform="translate(-103.419 -219.128)" fill="#f2f2f2"/>
      </g>
      <g id="Group_1792" data-name="Group 1792" transform="translate(19.229 112.178)">
        <g id="Group_1790" data-name="Group 1790" transform="translate(0 2.481)">
          <rect id="Rectangle_1108" data-name="Rectangle 1108" width="4.122" height="0.524" transform="translate(4.122)" fill="#492913"/>
          <rect id="Rectangle_1109" data-name="Rectangle 1109" width="4.122" height="0.524" fill="#3a2110"/>
        </g>
        <g id="Group_1791" data-name="Group 1791">
          <path id="Path_5081" data-name="Path 5081" d="M102.145,392.357a2.523,2.523,0,0,1,2.515,2.481h-4.122v-2.481Z" transform="translate(-96.416 -392.357)" fill="#492913"/>
          <path id="Path_5082" data-name="Path 5082" d="M94.49,392.357H96.1v2.481H91.975A2.523,2.523,0,0,1,94.49,392.357Z" transform="translate(-91.975 -392.357)" fill="#5b341a"/>
        </g>
      </g>
      <g id="Group_1795" data-name="Group 1795" transform="translate(27.473 112.182)">
        <g id="Group_1793" data-name="Group 1793" transform="translate(0 2.481)">
          <rect id="Rectangle_1110" data-name="Rectangle 1110" width="4.122" height="0.524" transform="translate(4.122)" fill="#331d0e"/>
          <rect id="Rectangle_1111" data-name="Rectangle 1111" width="4.122" height="0.524" fill="#3a2110"/>
        </g>
        <g id="Group_1794" data-name="Group 1794" transform="translate(0)">
          <path id="Path_5083" data-name="Path 5083" d="M119.271,392.366a2.523,2.523,0,0,1,2.514,2.481h-4.122v-2.481Z" transform="translate(-113.542 -392.366)" fill="#492913"/>
          <path id="Path_5084" data-name="Path 5084" d="M111.615,392.366h1.607v2.481H109.1A2.522,2.522,0,0,1,111.615,392.366Z" transform="translate(-109.101 -392.366)" fill="#5b341a"/>
        </g>
      </g>
      <g id="Group_1796" data-name="Group 1796" transform="translate(30.626 18.114)">
        <path id="Path_5085" data-name="Path 5085" d="M121.953,196.949v1.042h2.488Z" transform="translate(-118.92 -196.949)" fill="#3a1f0d"/>
        <rect id="Rectangle_1112" data-name="Rectangle 1112" width="2.488" height="1.042" transform="translate(0.545)" fill="#5b341a"/>
        <rect id="Rectangle_1113" data-name="Rectangle 1113" width="0.122" height="1.042" transform="translate(0.306)" fill="#5b341a"/>
        <rect id="Rectangle_1114" data-name="Rectangle 1114" width="0.122" height="1.042" fill="#5b341a"/>
      </g>
      <g id="Group_1797" data-name="Group 1797" transform="translate(19.734 20.56)">
        <path id="Path_5086" data-name="Path 5086" d="M94,202.632l-.525-.6a1.17,1.17,0,0,1,0,.9h.006a1.364,1.364,0,0,0-.458,1.017h2.746A1.355,1.355,0,0,0,94,202.639Z" transform="translate(-93.025 -202.03)" fill="#492913"/>
      </g>
      <g id="Group_1798" data-name="Group 1798" transform="translate(18.799 18.114)">
        <path id="Path_5087" data-name="Path 5087" d="M93.569,196.949v1.042H91.081Z" transform="translate(-91.081 -196.949)" fill="#492913"/>
        <rect id="Rectangle_1115" data-name="Rectangle 1115" width="2.488" height="1.042" transform="translate(2.488)" fill="#3a1f0d"/>
        <rect id="Rectangle_1116" data-name="Rectangle 1116" width="0.122" height="1.042" transform="translate(5.092)" fill="#3a1f0d"/>
        <rect id="Rectangle_1117" data-name="Rectangle 1117" width="0.122" height="1.042" transform="translate(5.399)" fill="#3a1f0d"/>
      </g>
      <path id="Path_5088" data-name="Path 5088" d="M103.715,170.918h-.028l-4.957,5.155c0,5.8,9.9,10.155,15.9,10.2V175.664A14.94,14.94,0,0,0,103.715,170.918Z" transform="translate(-76.249 -165.335)" fill="#3f2514"/>
    </g>
    <g id="Group_1828" data-name="Group 1828" transform="translate(45.162 16.387)">
      <g id="Group_1800" data-name="Group 1800" transform="translate(6.439 66.307)">
        <path id="Path_5089" data-name="Path 5089" d="M159.226,317.239V362.2h8.412V324.385a1.191,1.191,0,0,1,1.191-1.191v-5.956Z" transform="translate(-159.226 -317.239)" fill="#313f4c"/>
        <path id="Path_5090" data-name="Path 5090" d="M179.176,317.239v5.956a1.191,1.191,0,0,1,1.191,1.191V362.2h8.412V317.239Z" transform="translate(-169.573 -317.239)" fill="#283441"/>
      </g>
      <g id="Group_1801" data-name="Group 1801" transform="translate(3.218 111.272)">
        <rect id="Rectangle_1118" data-name="Rectangle 1118" width="5.854" height="0.744" fill="#492913"/>
        <rect id="Rectangle_1119" data-name="Rectangle 1119" width="5.854" height="0.744" transform="translate(5.854)" fill="#3a2110"/>
      </g>
      <g id="Group_1802" data-name="Group 1802" transform="translate(3.218 107.748)">
        <path id="Path_5091" data-name="Path 5091" d="M156.1,403.328a3.583,3.583,0,0,0-3.571,3.524h5.853v-3.524Z" transform="translate(-152.534 -403.328)" fill="#5b341a"/>
        <path id="Path_5092" data-name="Path 5092" d="M166.977,403.328h-2.283v3.524h5.854A3.583,3.583,0,0,0,166.977,403.328Z" transform="translate(-158.841 -403.328)" fill="#492913"/>
      </g>
      <g id="Group_1803" data-name="Group 1803" transform="translate(17.23 111.272)">
        <rect id="Rectangle_1120" data-name="Rectangle 1120" width="5.854" height="0.744" transform="translate(5.854)" fill="#492913"/>
        <rect id="Rectangle_1121" data-name="Rectangle 1121" width="5.854" height="0.744" fill="#3a2110"/>
      </g>
      <g id="Group_1804" data-name="Group 1804" transform="translate(17.231 107.748)">
        <path id="Path_5093" data-name="Path 5093" d="M196.087,403.328a3.583,3.583,0,0,1,3.571,3.524H193.8v-3.524Z" transform="translate(-187.951 -403.328)" fill="#5b341a"/>
        <path id="Path_5094" data-name="Path 5094" d="M185.215,403.328H187.5v3.524h-5.853A3.583,3.583,0,0,1,185.215,403.328Z" transform="translate(-181.644 -403.328)" fill="#492913"/>
      </g>
      <g id="Group_1805" data-name="Group 1805" transform="translate(3.797 2.284)">
        <path id="Path_5095" data-name="Path 5095" d="M153.736,193.95v6.918c0,5.364,5.483,9.712,12.246,9.712h0V184.238C159.219,184.238,153.736,188.586,153.736,193.95Z" transform="translate(-153.736 -184.238)" fill="#492b16"/>
        <path id="Path_5096" data-name="Path 5096" d="M179.232,184.239h-.056v26.343c6.764,0,12.247-4.348,12.247-9.712V193.95C191.423,188.6,185.97,184.264,179.232,184.239Z" transform="translate(-166.93 -184.238)" fill="#3f2514"/>
      </g>
      <path id="Path_5097" data-name="Path 5097" d="M156.424,220.253a3,3,0,1,1-3-3A3,3,0,0,1,156.424,220.253Z" transform="translate(-148.225 -199.079)" fill="#ff884d"/>
      <path id="Path_5098" data-name="Path 5098" d="M201.524,220.253a3,3,0,1,1-3-3A3,3,0,0,1,201.524,220.253Z" transform="translate(-171.616 -199.079)" fill="#f58243"/>
      <g id="Group_1807" data-name="Group 1807" transform="translate(0 34.891)">
        <path id="Path_5099" data-name="Path 5099" d="M145.849,267.686h5.7v15.708h10.348V251.981A15.931,15.931,0,0,0,145.849,267.686Z" transform="translate(-145.849 -251.979)" fill="#374754"/>
        <path id="Path_5100" data-name="Path 5100" d="M179.288,251.976l-.112,0v31.413h10.869V267.684h5.4A15.936,15.936,0,0,0,179.288,251.976Z" transform="translate(-163.133 -251.976)" fill="#2e3c49"/>
        <g id="Group_1806" data-name="Group 1806" transform="translate(6.588 31.416)">
          <rect id="Rectangle_1122" data-name="Rectangle 1122" width="9.455" height="1.191" transform="translate(9.454)" fill="#1e2830"/>
          <rect id="Rectangle_1123" data-name="Rectangle 1123" width="9.455" height="1.191" fill="#26323a"/>
        </g>
        <rect id="Rectangle_1124" data-name="Rectangle 1124" width="5.695" height="4.289" transform="translate(0 15.708)" fill="#374754"/>
        <rect id="Rectangle_1125" data-name="Rectangle 1125" width="5.695" height="4.289" transform="translate(26.614 15.709)" fill="#2e3c49"/>
      </g>
      <g id="Group_1817" data-name="Group 1817" transform="translate(6.62 26.925)">
        <g id="Group_1808" data-name="Group 1808" transform="translate(5.105 9.158)">
          <rect id="Rectangle_1126" data-name="Rectangle 1126" width="4.318" height="14.92" fill="#e2e2e2"/>
          <rect id="Rectangle_1127" data-name="Rectangle 1127" width="4.318" height="14.92" transform="translate(4.318)" fill="#d3d3d3"/>
        </g>
        <g id="Group_1811" data-name="Group 1811" transform="translate(7.264 11.277)">
          <g id="Group_1809" data-name="Group 1809" transform="translate(0 0.688)">
            <path id="Path_5101" data-name="Path 5101" d="M174.692,271.087h2.159v-10.8Z" transform="translate(-174.692 -260.283)" fill="#e83a2d"/>
            <path id="Path_5102" data-name="Path 5102" d="M179.177,260.283v10.629h2.159Z" transform="translate(-177.018 -260.283)" fill="#e02b22"/>
          </g>
          <g id="Group_1810" data-name="Group 1810" transform="translate(0.29)">
            <path id="Path_5103" data-name="Path 5103" d="M175.295,260.723l1.868,1.869v-3.737Z" transform="translate(-175.295 -258.855)" fill="#f94028"/>
            <path id="Path_5104" data-name="Path 5104" d="M179.177,258.855v3.737l1.869-1.869Z" transform="translate(-177.308 -258.855)" fill="#ef2f20"/>
          </g>
        </g>
        <g id="Group_1812" data-name="Group 1812" transform="translate(5.105 11.59)">
          <path id="Path_5105" data-name="Path 5105" d="M183.495,259.506l-4.318,10.687h0v17.1h4.318Z" transform="translate(-174.859 -259.506)" fill="#1b679b"/>
          <path id="Path_5106" data-name="Path 5106" d="M170.207,259.506V287.3h4.318v-17.1Z" transform="translate(-170.207 -259.506)" fill="#1b69aa"/>
        </g>
        <g id="Group_1813" data-name="Group 1813" transform="translate(2.236)">
          <path id="Path_5107" data-name="Path 5107" d="M171.434,248.154l-7.186,1.588v-7.564a6.978,6.978,0,0,1,7.186-6.749Z" transform="translate(-164.248 -235.428)" fill="#fff"/>
          <path id="Path_5108" data-name="Path 5108" d="M179.176,248.154l7.186,1.588v-7.564a6.978,6.978,0,0,0-7.186-6.749Z" transform="translate(-171.99 -235.428)" fill="#f2f2f2"/>
        </g>
        <g id="Group_1814" data-name="Group 1814" transform="translate(5.105)">
          <path id="Path_5109" data-name="Path 5109" d="M179.176,235.428h0v12.656h0a4.193,4.193,0,0,0,4.318-4.056v-4.545A4.193,4.193,0,0,0,179.176,235.428Z" transform="translate(-174.859 -235.428)" fill="#f58243"/>
          <path id="Path_5110" data-name="Path 5110" d="M170.207,239.484v4.545a4.193,4.193,0,0,0,4.317,4.056V235.428A4.193,4.193,0,0,0,170.207,239.484Z" transform="translate(-170.207 -235.428)" fill="#ff884d"/>
        </g>
        <g id="Group_1815" data-name="Group 1815" transform="translate(0 2.997)">
          <path id="Path_5111" data-name="Path 5111" d="M159.6,249.519v9.918a8.8,8.8,0,0,0,5.1,7.865V241.653A8.8,8.8,0,0,0,159.6,249.519Z" transform="translate(-159.602 -241.653)" fill="#313f4c"/>
        </g>
        <g id="Group_1816" data-name="Group 1816" transform="translate(13.741 2.997)">
          <path id="Path_5112" data-name="Path 5112" d="M193.251,249.519v9.918a8.8,8.8,0,0,1-5.1,7.865V241.653A8.8,8.8,0,0,1,193.251,249.519Z" transform="translate(-188.147 -241.653)" fill="#283441"/>
        </g>
      </g>
      <g id="Group_1818" data-name="Group 1818" transform="translate(5.174 6.453)">
        <path id="Path_5113" data-name="Path 5113" d="M167.466,221.337A10.682,10.682,0,0,1,156.6,210.852v-7.468A10.682,10.682,0,0,1,167.467,192.9Z" transform="translate(-156.598 -192.899)" fill="#ff8e5c"/>
        <path id="Path_5114" data-name="Path 5114" d="M177.252,192.9v12.288l-1.787,4.865h1.786v11.285h0a10.682,10.682,0,0,0,10.869-10.485v-7.468A10.724,10.724,0,0,0,177.252,192.9Z" transform="translate(-166.383 -192.899)" fill="#ff8548"/>
      </g>
      <g id="Group_1819" data-name="Group 1819" transform="translate(8.714 17.091)">
        <path id="Path_5115" data-name="Path 5115" d="M166.8,215v2.746a1.373,1.373,0,0,0,0-2.746Z" transform="translate(-165.432 -214.997)" fill="#3a1f0d"/>
        <path id="Path_5116" data-name="Path 5116" d="M163.952,216.37a1.373,1.373,0,0,0,1.373,1.373V215A1.373,1.373,0,0,0,163.952,216.37Z" transform="translate(-163.952 -214.997)" fill="#492913"/>
      </g>
      <g id="Group_1820" data-name="Group 1820" transform="translate(20.626 17.091)">
        <path id="Path_5117" data-name="Path 5117" d="M191.549,215v2.746a1.373,1.373,0,0,0,0-2.746Z" transform="translate(-190.176 -214.997)" fill="#3a1f0d"/>
        <path id="Path_5118" data-name="Path 5118" d="M188.7,216.37a1.373,1.373,0,0,0,1.373,1.373V215A1.373,1.373,0,0,0,188.7,216.37Z" transform="translate(-188.697 -214.997)" fill="#492913"/>
      </g>
      <g id="Group_1823" data-name="Group 1823" transform="translate(10.361 25.61)">
        <g id="Group_1821" data-name="Group 1821">
          <path id="Path_5119" data-name="Path 5119" d="M167.373,232.7a5.959,5.959,0,0,0,2.171,3.016,4.4,4.4,0,0,1,3.511-1.7V232.7Z" transform="translate(-167.373 -232.696)" fill="#a32929"/>
          <path id="Path_5120" data-name="Path 5120" d="M179.177,232.7v1.315a4.4,4.4,0,0,1,3.511,1.7,5.962,5.962,0,0,0,2.171-3.016Z" transform="translate(-173.495 -232.696)" fill="#a01c1c"/>
        </g>
        <g id="Group_1822" data-name="Group 1822" transform="translate(2.171 1.315)">
          <path id="Path_5121" data-name="Path 5121" d="M182.688,237.129a4.4,4.4,0,0,0-3.511-1.7h0v2.854h0A5.921,5.921,0,0,0,182.688,237.129Z" transform="translate(-175.665 -235.428)" fill="#b72323"/>
          <path id="Path_5122" data-name="Path 5122" d="M171.883,237.129a5.918,5.918,0,0,0,3.511,1.152v-2.854A4.4,4.4,0,0,0,171.883,237.129Z" transform="translate(-171.883 -235.428)" fill="#bc3535"/>
        </g>
        <path id="Path_5123" data-name="Path 5123" d="M173.055,232.7h-5.682a5.833,5.833,0,0,0,.406.968h5.276Z" transform="translate(-167.373 -232.696)" fill="#fff"/>
        <path id="Path_5124" data-name="Path 5124" d="M179.177,233.664h5.276a5.831,5.831,0,0,0,.406-.968h-5.682Z" transform="translate(-173.495 -232.696)" fill="#f2f2f2"/>
      </g>
      <path id="Path_5125" data-name="Path 5125" d="M180.735,181.766a6.144,6.144,0,0,0-1.689-2.273,8.154,8.154,0,0,1-5.633,2.273H162.1a8.272,8.272,0,0,0-8.237,8.3c0,.086.023.165.025.25h21.219a6.17,6.17,0,0,0,5.629-8.555Z" transform="translate(-150.005 -179.493)" fill="#5b341a"/>
      <g id="Group_1824" data-name="Group 1824" transform="translate(19.533 14.934)">
        <rect id="Rectangle_1128" data-name="Rectangle 1128" width="2.488" height="1.042" transform="translate(2.488)" fill="#3a1f0d"/>
        <rect id="Rectangle_1129" data-name="Rectangle 1129" width="2.488" height="1.042" fill="#5b341a"/>
      </g>
      <g id="Group_1825" data-name="Group 1825" transform="translate(7.6 14.934)">
        <rect id="Rectangle_1130" data-name="Rectangle 1130" width="2.488" height="1.042" transform="translate(2.488)" fill="#3a1f0d"/>
        <rect id="Rectangle_1131" data-name="Rectangle 1131" width="2.488" height="1.042" fill="#5b341a"/>
      </g>
      <g id="Group_1826" data-name="Group 1826" transform="translate(0 47.357)">
        <path id="Path_5126" data-name="Path 5126" d="M196.883,282.238a1.341,1.341,0,0,1-.336,1.364l-2.585,2.546a1.34,1.34,0,0,1-1.881-1.909l2.585-2.546a1.34,1.34,0,0,1,2.217.545Z" transform="translate(-169.619 -279.653)" fill="#ff884d"/>
        <path id="Path_5127" data-name="Path 5127" d="M184.1,286.3l2.608-.834,4.892-1.586,1.76-1.693a.79.79,0,0,0,.2-.735,1.279,1.279,0,0,0-.041-.163,1.662,1.662,0,0,0-.389-.634,1.74,1.74,0,0,0-.309-.253h0a.98.98,0,0,0-1.212-.04l-.577.555-4.736,1.515a.6.6,0,1,1-.363-1.134l2.871-.919c.478-.153.676-.817.454-1.513s-.771-1.122-1.248-.969l-5.984,1.915Z" transform="translate(-164.612 -277.872)" fill="#ff8e5c"/>
        <rect id="Rectangle_1132" data-name="Rectangle 1132" width="6.812" height="1.346" transform="matrix(-0.305, -0.952, 0.952, -0.305, 19.461, 8.443)" fill="#fff"/>
        <path id="Path_5128" data-name="Path 5128" d="M162.086,282.291l-16.237,5.2,2.076,6.488L165.34,288.4l-2.076-6.488Z" transform="translate(-145.849 -279.968)" fill="#374754"/>
      </g>
      <g id="Group_1827" data-name="Group 1827" transform="translate(3.33 47.445)">
        <path id="Path_5129" data-name="Path 5129" d="M156.222,282.445a1.341,1.341,0,0,0,.341,1.363l2.6,2.536a1.34,1.34,0,0,0,1.873-1.916l-2.6-2.536a1.341,1.341,0,0,0-2.215.554Z" transform="translate(-154.526 -279.846)" fill="#f58243"/>
        <path id="Path_5130" data-name="Path 5130" d="M162.259,286.471l-2.611-.824-4.9-1.566-1.767-1.686a.788.788,0,0,1-.2-.733,1.29,1.29,0,0,1,.04-.164,1.656,1.656,0,0,1,.387-.635,1.739,1.739,0,0,1,.308-.254h0a.981.981,0,0,1,1.212-.045l.579.552,4.742,1.5a.6.6,0,0,0,.359-1.136l-2.876-.907c-.478-.151-.68-.814-.46-1.511s.766-1.124,1.244-.974l5.992,1.89Z" transform="translate(-152.766 -278.054)" fill="#ff8548"/>
        <rect id="Rectangle_1133" data-name="Rectangle 1133" width="6.812" height="1.346" transform="translate(8.239 8.021) rotate(-72.49)" fill="#fff"/>
        <path id="Path_5131" data-name="Path 5131" d="M175.716,282.416l16.258,5.129-2.049,6.5-17.437-5.5,2.049-6.5Z" transform="translate(-162.994 -280.123)" fill="#2e3c49"/>
      </g>
    </g>
    <g id="Group_1851" data-name="Group 1851" transform="translate(142.354 9.847)">
      <g id="Group_1829" data-name="Group 1829" transform="translate(16.355 66.307)">
        <path id="Path_5132" data-name="Path 5132" d="M381.731,303.653v44.965h8.412V310.8a1.191,1.191,0,0,1,1.191-1.191v-5.956Z" transform="translate(-381.731 -303.653)" fill="#383944"/>
        <path id="Path_5133" data-name="Path 5133" d="M401.681,303.653v5.956a1.191,1.191,0,0,1,1.191,1.191v37.818h8.412V303.653Z" transform="translate(-392.078 -303.653)" fill="#2d2e38"/>
      </g>
      <g id="Group_1830" data-name="Group 1830" transform="translate(13.133 111.272)">
        <rect id="Rectangle_1134" data-name="Rectangle 1134" width="5.854" height="0.744" fill="#492913"/>
        <rect id="Rectangle_1135" data-name="Rectangle 1135" width="5.854" height="0.744" transform="translate(5.854)" fill="#3a2110"/>
      </g>
      <g id="Group_1831" data-name="Group 1831" transform="translate(13.133 107.748)">
        <path id="Path_5134" data-name="Path 5134" d="M378.61,389.743a3.583,3.583,0,0,0-3.571,3.524h5.853v-3.524Z" transform="translate(-375.039 -389.743)" fill="#5b341a"/>
        <path id="Path_5135" data-name="Path 5135" d="M389.482,389.743H387.2v3.524h5.854A3.583,3.583,0,0,0,389.482,389.743Z" transform="translate(-381.346 -389.743)" fill="#492913"/>
      </g>
      <g id="Group_1832" data-name="Group 1832" transform="translate(27.146 111.272)">
        <rect id="Rectangle_1136" data-name="Rectangle 1136" width="5.854" height="0.744" transform="translate(5.854)" fill="#492913"/>
        <rect id="Rectangle_1137" data-name="Rectangle 1137" width="5.854" height="0.744" fill="#3a2110"/>
      </g>
      <g id="Group_1833" data-name="Group 1833" transform="translate(27.145 107.748)">
        <path id="Path_5136" data-name="Path 5136" d="M418.592,389.743a3.583,3.583,0,0,1,3.571,3.524h-5.854v-3.524Z" transform="translate(-410.455 -389.743)" fill="#5b341a"/>
        <path id="Path_5137" data-name="Path 5137" d="M407.719,389.743H410v3.524h-5.854A3.583,3.583,0,0,1,407.719,389.743Z" transform="translate(-404.148 -389.743)" fill="#492913"/>
      </g>
      <g id="Group_1834" data-name="Group 1834" transform="translate(13.712 2.285)">
        <path id="Path_5138" data-name="Path 5138" d="M376.241,180.365v6.918c0,5.364,5.483,9.712,12.246,9.712h0V170.653C381.724,170.653,376.241,175,376.241,180.365Z" transform="translate(-376.241 -170.653)" fill="#492b16"/>
        <path id="Path_5139" data-name="Path 5139" d="M401.737,170.654h-.056V197c6.764,0,12.247-4.348,12.247-9.712v-6.918C413.928,175.016,408.475,170.678,401.737,170.654Z" transform="translate(-389.435 -170.653)" fill="#3f2514"/>
      </g>
      <path id="Path_5140" data-name="Path 5140" d="M378.929,206.667a3,3,0,1,1-3-3A3,3,0,0,1,378.929,206.667Z" transform="translate(-360.815 -185.493)" fill="#ff884d"/>
      <path id="Path_5141" data-name="Path 5141" d="M424.029,206.667a3,3,0,1,1-3-3A3,3,0,0,1,424.029,206.667Z" transform="translate(-384.205 -185.493)" fill="#f58243"/>
      <g id="Group_1836" data-name="Group 1836" transform="translate(0 2.85)">
        <g id="Group_1835" data-name="Group 1835" transform="translate(16.504 63.457)">
          <rect id="Rectangle_1138" data-name="Rectangle 1138" width="9.455" height="1.191" transform="translate(9.454)" fill="#282a35"/>
          <rect id="Rectangle_1139" data-name="Rectangle 1139" width="9.455" height="1.191" fill="#2d2e38"/>
        </g>
        <rect id="Rectangle_1140" data-name="Rectangle 1140" width="10.441" height="31.506" transform="translate(15.517 31.951)" fill="#e2e2e2"/>
        <path id="Path_5142" data-name="Path 5142" d="M351.23,174.553a1.343,1.343,0,0,0-1.2.737l-1.642,3.248a1.344,1.344,0,0,0,2.4,1.213l1.642-3.248a1.344,1.344,0,0,0-1.2-1.951Z" transform="translate(-348.008 -173.241)" fill="#ff884d"/>
        <path id="Path_5143" data-name="Path 5143" d="M347.778,182.352v-2.746l.019-5.157,1.079-2.2a.792.792,0,0,1,.642-.412,1.285,1.285,0,0,1,.168-.011,1.666,1.666,0,0,1,.724.178,1.753,1.753,0,0,1,.336.218h0a.983.983,0,0,1,.409,1.146l-.354.72v4.987a.6.6,0,1,0,1.195,0v-3.024c0-.5.574-.9,1.306-.9s1.306.394,1.306.9v6.3Z" transform="translate(-347.767 -171.827)" fill="#ff8e5c"/>
        <rect id="Rectangle_1141" data-name="Rectangle 1141" width="6.831" height="1.349" transform="translate(6.842 10.555) rotate(180)" fill="#fff"/>
        <path id="Path_5144" data-name="Path 5144" d="M363.437,235.767l-15.681-10.32v-8.672l15.681,10.32Z" transform="translate(-347.756 -195.139)" fill="#e2e2e2"/>
        <path id="Path_5145" data-name="Path 5145" d="M354.6,193.691h-6.831v17.044h-.011c0,.067.007.132.011.2v.163h.009a4.351,4.351,0,0,0,4.32,3.97h2.5Z" transform="translate(-347.756 -183.166)" fill="#e2e2e2"/>
        <path id="Path_5146" data-name="Path 5146" d="M350.988,184.619v-1.36a.6.6,0,0,1-.6-.6v-3.024c0-.5-.574-.9-1.306-.9s-1.306.394-1.306.9v4.982Z" transform="translate(-347.767 -175.413)" fill="#ff8e5c"/>
        <rect id="Rectangle_1142" data-name="Rectangle 1142" width="10.441" height="31.506" transform="translate(36.4 63.457) rotate(180)" fill="#d3d3d3"/>
        <path id="Path_5147" data-name="Path 5147" d="M447.467,174.553a1.344,1.344,0,0,1,1.2.737l1.642,3.248a1.344,1.344,0,0,1-2.4,1.213l-1.642-3.248a1.344,1.344,0,0,1,1.2-1.951Z" transform="translate(-398.772 -173.241)" fill="#ff884d"/>
        <path id="Path_5148" data-name="Path 5148" d="M448.225,182.352v-2.746l-.019-5.157-1.079-2.2a.791.791,0,0,0-.642-.412,1.285,1.285,0,0,0-.168-.011,1.664,1.664,0,0,0-.724.178,1.752,1.752,0,0,0-.336.218h0a.983.983,0,0,0-.409,1.146l.354.72v4.987a.6.6,0,1,1-1.195,0v-3.024c0-.5-.574-.9-1.306-.9s-1.306.394-1.306.9v6.3Z" transform="translate(-396.319 -171.827)" fill="#ff8e5c"/>
        <rect id="Rectangle_1143" data-name="Rectangle 1143" width="6.831" height="1.349" transform="translate(45.074 9.206)" fill="#fff"/>
        <path id="Path_5149" data-name="Path 5149" d="M423.032,235.767l15.681-10.32v-8.672L423.032,227.1Z" transform="translate(-386.796 -195.139)" fill="#d3d3d3"/>
        <path id="Path_5150" data-name="Path 5150" d="M441.394,193.691h6.831v17.044h.011c0,.067-.007.132-.011.2v.163h-.009a4.351,4.351,0,0,1-4.32,3.97h-2.5Z" transform="translate(-396.319 -183.166)" fill="#d3d3d3"/>
        <path id="Path_5151" data-name="Path 5151" d="M448.916,184.619v-1.36a.6.6,0,0,0,.6-.6v-3.024c0-.5.574-.9,1.306-.9s1.306.394,1.306.9v4.982Z" transform="translate(-400.221 -175.413)" fill="#ff8e5c"/>
      </g>
      <g id="Group_1841" data-name="Group 1841" transform="translate(18.772 26.925)">
        <g id="Group_1838" data-name="Group 1838" transform="translate(5.027 11.277)">
          <path id="Path_5152" data-name="Path 5152" d="M397.2,268.258l2.159,3.344V246.7Z" transform="translate(-397.197 -246.01)" fill="#e83a2d"/>
          <path id="Path_5153" data-name="Path 5153" d="M403.84,268.258l-2.159,3.344V246.7Z" transform="translate(-399.523 -246.01)" fill="#e02b22"/>
          <g id="Group_1837" data-name="Group 1837" transform="translate(0.29)">
            <path id="Path_5154" data-name="Path 5154" d="M397.8,247.138l1.869,1.869v-3.737Z" transform="translate(-397.8 -245.269)" fill="#f94028"/>
            <path id="Path_5155" data-name="Path 5155" d="M401.681,245.269v3.737l1.869-1.869Z" transform="translate(-399.813 -245.269)" fill="#ef2f20"/>
          </g>
        </g>
        <g id="Group_1839" data-name="Group 1839">
          <path id="Path_5156" data-name="Path 5156" d="M393.939,234.568l-7.186,1.588v-7.564a6.978,6.978,0,0,1,7.186-6.75Z" transform="translate(-386.753 -221.842)" fill="#fff"/>
          <path id="Path_5157" data-name="Path 5157" d="M401.681,234.568l7.186,1.588v-7.564a6.978,6.978,0,0,0-7.186-6.75Z" transform="translate(-394.495 -221.842)" fill="#f2f2f2"/>
        </g>
        <g id="Group_1840" data-name="Group 1840" transform="translate(2.868)">
          <path id="Path_5158" data-name="Path 5158" d="M401.681,221.842h0V234.5h0A4.192,4.192,0,0,0,406,230.442V225.9A4.192,4.192,0,0,0,401.681,221.842Z" transform="translate(-397.364 -221.842)" fill="#f58243"/>
          <path id="Path_5159" data-name="Path 5159" d="M392.712,225.9v4.545a4.193,4.193,0,0,0,4.317,4.056V221.842A4.193,4.193,0,0,0,392.712,225.9Z" transform="translate(-392.712 -221.842)" fill="#ff884d"/>
        </g>
      </g>
      <g id="Group_1843" data-name="Group 1843" transform="translate(15.09 6.453)">
        <path id="Path_5160" data-name="Path 5160" d="M389.971,207.751A10.682,10.682,0,0,1,379.1,197.266V189.8a10.682,10.682,0,0,1,10.869-10.485Z" transform="translate(-379.103 -179.313)" fill="#ff8e5c"/>
        <path id="Path_5161" data-name="Path 5161" d="M399.757,179.313V191.6l-1.787,4.865h1.786v11.284h0a10.682,10.682,0,0,0,10.869-10.485V189.8A10.724,10.724,0,0,0,399.757,179.313Z" transform="translate(-388.888 -179.313)" fill="#ff8548"/>
        <g id="Group_1842" data-name="Group 1842" transform="translate(0 17.172)">
          <path id="Path_5162" data-name="Path 5162" d="M385.9,214.987a2.165,2.165,0,0,0-1.659.545H379.1v5.006a10.682,10.682,0,0,0,10.868,10.485V214.987Z" transform="translate(-379.103 -214.987)" fill="#683d1f"/>
          <path id="Path_5163" data-name="Path 5163" d="M407.5,215.532a2.165,2.165,0,0,0-1.659-.545h-4.156v16.036h0a10.682,10.682,0,0,0,10.869-10.485v-5.006Z" transform="translate(-390.813 -214.987)" fill="#5b341a"/>
        </g>
      </g>
      <g id="Group_1844" data-name="Group 1844" transform="translate(18.63 17.091)">
        <path id="Path_5164" data-name="Path 5164" d="M389.31,201.411v2.746a1.373,1.373,0,0,0,0-2.746Z" transform="translate(-387.937 -201.411)" fill="#3a1f0d"/>
        <path id="Path_5165" data-name="Path 5165" d="M386.457,202.784a1.373,1.373,0,0,0,1.373,1.373v-2.746A1.373,1.373,0,0,0,386.457,202.784Z" transform="translate(-386.457 -201.411)" fill="#492913"/>
      </g>
      <g id="Group_1845" data-name="Group 1845" transform="translate(30.541 17.091)">
        <path id="Path_5166" data-name="Path 5166" d="M414.054,201.411v2.746a1.373,1.373,0,0,0,0-2.746Z" transform="translate(-412.681 -201.411)" fill="#3a1f0d"/>
        <path id="Path_5167" data-name="Path 5167" d="M411.2,202.784a1.373,1.373,0,0,0,1.373,1.373v-2.746A1.373,1.373,0,0,0,411.2,202.784Z" transform="translate(-411.201 -201.411)" fill="#492913"/>
      </g>
      <g id="Group_1848" data-name="Group 1848" transform="translate(20.276 25.61)">
        <g id="Group_1846" data-name="Group 1846">
          <path id="Path_5168" data-name="Path 5168" d="M389.878,219.11a5.959,5.959,0,0,0,2.171,3.016,4.4,4.4,0,0,1,3.512-1.7V219.11Z" transform="translate(-389.878 -219.11)" fill="#a32929"/>
          <path id="Path_5169" data-name="Path 5169" d="M401.682,219.11v1.315a4.4,4.4,0,0,1,3.511,1.7,5.963,5.963,0,0,0,2.171-3.016Z" transform="translate(-396 -219.11)" fill="#a01c1c"/>
        </g>
        <g id="Group_1847" data-name="Group 1847" transform="translate(2.171 1.315)">
          <path id="Path_5170" data-name="Path 5170" d="M405.193,223.543a4.4,4.4,0,0,0-3.511-1.7h0V224.7h0A5.921,5.921,0,0,0,405.193,223.543Z" transform="translate(-398.17 -221.842)" fill="#b72323"/>
          <path id="Path_5171" data-name="Path 5171" d="M394.387,223.543A5.921,5.921,0,0,0,397.9,224.7v-2.854A4.4,4.4,0,0,0,394.387,223.543Z" transform="translate(-394.387 -221.842)" fill="#bc3535"/>
        </g>
        <path id="Path_5172" data-name="Path 5172" d="M395.56,219.11h-5.682a5.855,5.855,0,0,0,.406.968h5.276Z" transform="translate(-389.878 -219.11)" fill="#fff"/>
        <path id="Path_5173" data-name="Path 5173" d="M401.682,220.078h5.276a5.857,5.857,0,0,0,.406-.968h-5.682Z" transform="translate(-396 -219.11)" fill="#f2f2f2"/>
      </g>
      <path id="Path_5174" data-name="Path 5174" d="M403.24,168.181a6.141,6.141,0,0,0-1.689-2.273,8.154,8.154,0,0,1-5.633,2.273H384.6a8.271,8.271,0,0,0-8.237,8.3c0,.086.023.166.025.251h21.219a6.169,6.169,0,0,0,5.629-8.555Z" transform="translate(-362.595 -165.907)" fill="#5b341a"/>
      <g id="Group_1849" data-name="Group 1849" transform="translate(29.448 14.934)">
        <rect id="Rectangle_1144" data-name="Rectangle 1144" width="2.488" height="1.042" transform="translate(2.488)" fill="#3a1f0d"/>
        <rect id="Rectangle_1145" data-name="Rectangle 1145" width="2.488" height="1.042" fill="#5b341a"/>
      </g>
      <g id="Group_1850" data-name="Group 1850" transform="translate(17.515 14.934)">
        <rect id="Rectangle_1146" data-name="Rectangle 1146" width="2.488" height="1.042" transform="translate(2.488)" fill="#3a1f0d"/>
        <rect id="Rectangle_1147" data-name="Rectangle 1147" width="2.488" height="1.042" fill="#5b341a"/>
      </g>
    </g>
    <g id="Group_1877" data-name="Group 1877" transform="translate(112.426 18.674)">
      <g id="Group_1852" data-name="Group 1852" transform="translate(15.513 84.099)">
        <path id="Path_5175" data-name="Path 5175" d="M317.809,358.951l2.9,25.1h3.031v-25.1Z" transform="translate(-317.809 -358.951)" fill="#ff8e5c"/>
        <path id="Path_5176" data-name="Path 5176" d="M336.074,358.951l-2.9,25.1h-3.031v-25.1Z" transform="translate(-324.204 -358.951)" fill="#ff8548"/>
      </g>
      <g id="Group_1853" data-name="Group 1853" transform="translate(8.569 61.45)">
        <path id="Path_5177" data-name="Path 5177" d="M308.077,342.9h8.186v-31h0c-7.113,0-12.879,1.268-12.879,11.856A45.464,45.464,0,0,0,308.077,342.9Z" transform="translate(-303.384 -311.9)" fill="#352011"/>
        <path id="Path_5178" data-name="Path 5178" d="M338.325,342.9a45.464,45.464,0,0,0,4.693-19.145c0-10.588-5.766-11.856-12.879-11.856v31Z" transform="translate(-317.26 -311.9)" fill="#2b190e"/>
      </g>
      <path id="Path_5179" data-name="Path 5179" d="M307.619,189.007V218.86c2.642,2.156,6.517,3.172,10.84,3.177V184.246A14.632,14.632,0,0,0,307.619,189.007Z" transform="translate(-297.012 -184.245)" fill="#352011"/>
      <path id="Path_5180" data-name="Path 5180" d="M330.167,184.244h-.028v37.791h.028c4.311,0,8.179-1,10.826-3.141V188.99A14.748,14.748,0,0,0,330.167,184.244Z" transform="translate(-308.691 -184.244)" fill="#2b190e"/>
      <g id="Group_1856" data-name="Group 1856" transform="translate(13.204 106.719)">
        <g id="Group_1854" data-name="Group 1854" transform="translate(0 2.481)">
          <rect id="Rectangle_1148" data-name="Rectangle 1148" width="4.122" height="0.524" transform="translate(4.122)" fill="#492913"/>
          <rect id="Rectangle_1149" data-name="Rectangle 1149" width="4.122" height="0.524" fill="#3a2110"/>
        </g>
        <g id="Group_1855" data-name="Group 1855" transform="translate(0)">
          <path id="Path_5181" data-name="Path 5181" d="M323.184,405.943a2.523,2.523,0,0,1,2.514,2.481h-4.122v-2.481Z" transform="translate(-317.454 -405.943)" fill="#492913"/>
          <path id="Path_5182" data-name="Path 5182" d="M315.528,405.943h1.607v2.481h-4.121A2.522,2.522,0,0,1,315.528,405.943Z" transform="translate(-313.014 -405.943)" fill="#5b341a"/>
        </g>
      </g>
      <g id="Group_1859" data-name="Group 1859" transform="translate(21.448 106.724)">
        <g id="Group_1857" data-name="Group 1857" transform="translate(0 2.481)">
          <rect id="Rectangle_1150" data-name="Rectangle 1150" width="4.122" height="0.524" transform="translate(4.122)" fill="#331d0e"/>
          <rect id="Rectangle_1151" data-name="Rectangle 1151" width="4.122" height="0.524" fill="#3a2110"/>
        </g>
        <g id="Group_1858" data-name="Group 1858">
          <path id="Path_5183" data-name="Path 5183" d="M340.309,405.952a2.522,2.522,0,0,1,2.514,2.481H338.7v-2.481Z" transform="translate(-334.58 -405.952)" fill="#492913"/>
          <path id="Path_5184" data-name="Path 5184" d="M332.653,405.952h1.608v2.481h-4.122A2.522,2.522,0,0,1,332.653,405.952Z" transform="translate(-330.139 -405.952)" fill="#5b341a"/>
        </g>
      </g>
      <g id="Group_1860" data-name="Group 1860" transform="translate(31.893 48.111)">
        <path id="Path_5185" data-name="Path 5185" d="M402.529,290.244a1.341,1.341,0,0,1-.736,1.2l-3.238,1.638a1.34,1.34,0,1,1-1.21-2.391l3.238-1.638a1.341,1.341,0,0,1,1.945,1.195Z" transform="translate(-375.058 -286.635)" fill="#f58243"/>
        <path id="Path_5186" data-name="Path 5186" d="M389.823,291h2.738l5.143-.02,2.193-1.076a.79.79,0,0,0,.411-.64,1.275,1.275,0,0,0,.011-.168,1.655,1.655,0,0,0-.177-.723,1.762,1.762,0,0,0-.217-.335h0a.98.98,0,0,0-1.142-.407l-.718.352h-4.972a.6.6,0,1,1,0-1.191h3.015c.5,0,.893-.572.893-1.3s-.392-1.3-.893-1.3h-6.282Z" transform="translate(-371.539 -284.189)" fill="#ff8548"/>
        <rect id="Rectangle_1152" data-name="Rectangle 1152" width="6.812" height="1.346" transform="translate(18.254 6.812) rotate(-90)" fill="#fff"/>
        <path id="Path_5187" data-name="Path 5187" d="M368.887,284.189H351.839V291h18.284v-6.812Z" transform="translate(-351.839 -284.189)" fill="#2e3c49"/>
      </g>
      <g id="Group_1861" data-name="Group 1861" transform="translate(5.293 32.579)">
        <path id="Path_5188" data-name="Path 5188" d="M296.579,267.635h5.7v15.708h10.348V251.93A15.931,15.931,0,0,0,296.579,267.635Z" transform="translate(-296.579 -251.927)" fill="#374754"/>
        <path id="Path_5189" data-name="Path 5189" d="M330.018,251.924l-.112,0V283.34h10.869V267.632h5.4A15.936,15.936,0,0,0,330.018,251.924Z" transform="translate(-313.863 -251.924)" fill="#2e3c49"/>
      </g>
      <g id="Group_1862" data-name="Group 1862" transform="translate(17.018 32.786)">
        <rect id="Rectangle_1153" data-name="Rectangle 1153" width="4.318" height="31.209" fill="#e2e2e2"/>
        <rect id="Rectangle_1154" data-name="Rectangle 1154" width="4.318" height="31.209" transform="translate(4.318)" fill="#d3d3d3"/>
      </g>
      <g id="Group_1863" data-name="Group 1863" transform="translate(12.918 32.612)">
        <path id="Path_5190" data-name="Path 5190" d="M329.884,252v9.062h0a8.371,8.371,0,0,0,8.428-6.824A16.423,16.423,0,0,0,330,251.993Z" transform="translate(-321.477 -251.993)" fill="#f2f2f2"/>
        <path id="Path_5191" data-name="Path 5191" d="M320.826,261.061V252a16.422,16.422,0,0,0-8.407,2.361A8.382,8.382,0,0,0,320.826,261.061Z" transform="translate(-312.419 -251.996)" fill="#fff"/>
      </g>
      <g id="Group_1864" data-name="Group 1864" transform="translate(17.018 24.614)">
        <path id="Path_5192" data-name="Path 5192" d="M329.906,235.377h0v12.655h0a4.193,4.193,0,0,0,4.318-4.055v-4.545A4.193,4.193,0,0,0,329.906,235.377Z" transform="translate(-325.589 -235.377)" fill="#f58243"/>
        <path id="Path_5193" data-name="Path 5193" d="M320.937,239.432v4.545a4.192,4.192,0,0,0,4.317,4.055V235.377A4.193,4.193,0,0,0,320.937,239.432Z" transform="translate(-320.937 -235.377)" fill="#ff884d"/>
      </g>
      <g id="Group_1865" data-name="Group 1865" transform="translate(11.913 27.683)">
        <path id="Path_5194" data-name="Path 5194" d="M310.332,249.617v9.918a8.8,8.8,0,0,0,5.1,7.866V241.752A8.8,8.8,0,0,0,310.332,249.617Z" transform="translate(-310.332 -241.752)" fill="#313f4c"/>
      </g>
      <g id="Group_1866" data-name="Group 1866" transform="translate(25.654 27.683)">
        <path id="Path_5195" data-name="Path 5195" d="M343.981,249.617v9.918a8.8,8.8,0,0,1-5.1,7.866V241.752A8.8,8.8,0,0,1,343.981,249.617Z" transform="translate(-338.877 -241.752)" fill="#283441"/>
      </g>
      <path id="Path_5196" data-name="Path 5196" d="M300.192,203.309V216.04a9.781,9.781,0,0,0,3.575,7.95V194.137A13.6,13.6,0,0,0,300.192,203.309Z" transform="translate(-293.16 -189.375)" fill="#492b16"/>
      <path id="Path_5197" data-name="Path 5197" d="M352.687,194.1v29.905a9.779,9.779,0,0,0,3.618-7.986V203.291A13.554,13.554,0,0,0,352.687,194.1Z" transform="translate(-320.385 -189.357)" fill="#3f2514"/>
      <g id="Group_1867" data-name="Group 1867" transform="translate(10.579 4.175)">
        <path id="Path_5198" data-name="Path 5198" d="M318.429,221.354A10.682,10.682,0,0,1,307.56,210.87V203.4a10.682,10.682,0,0,1,10.869-10.484Z" transform="translate(-307.56 -192.917)" fill="#ff8e5c"/>
        <path id="Path_5199" data-name="Path 5199" d="M328.214,192.917V205.2l-1.786,4.865h1.786v11.284h0a10.682,10.682,0,0,0,10.869-10.485V203.4A10.723,10.723,0,0,0,328.214,192.917Z" transform="translate(-317.345 -192.917)" fill="#ff8548"/>
      </g>
      <g id="Group_1868" data-name="Group 1868" transform="translate(26.302 15.101)">
        <path id="Path_5200" data-name="Path 5200" d="M341.994,216.218l.525-.6a1.17,1.17,0,0,0,0,.9h-.006a1.367,1.367,0,0,1,.458,1.017h-2.746A1.355,1.355,0,0,1,342,216.225Z" transform="translate(-340.224 -215.615)" fill="#492913"/>
      </g>
      <g id="Group_1871" data-name="Group 1871" transform="translate(15.766 23.332)">
        <g id="Group_1869" data-name="Group 1869">
          <path id="Path_5201" data-name="Path 5201" d="M318.335,232.713a5.96,5.96,0,0,0,2.171,3.016,4.4,4.4,0,0,1,3.511-1.7v-1.316Z" transform="translate(-318.335 -232.713)" fill="#a32929"/>
          <path id="Path_5202" data-name="Path 5202" d="M330.139,232.713v1.316a4.4,4.4,0,0,1,3.511,1.7,5.957,5.957,0,0,0,2.171-3.016Z" transform="translate(-324.457 -232.713)" fill="#a01c1c"/>
        </g>
        <g id="Group_1870" data-name="Group 1870" transform="translate(2.171 1.316)">
          <path id="Path_5203" data-name="Path 5203" d="M333.65,237.147a4.4,4.4,0,0,0-3.511-1.7h0V238.3h0A5.919,5.919,0,0,0,333.65,237.147Z" transform="translate(-326.628 -235.446)" fill="#b72323"/>
          <path id="Path_5204" data-name="Path 5204" d="M322.845,237.147a5.921,5.921,0,0,0,3.511,1.153v-2.854A4.4,4.4,0,0,0,322.845,237.147Z" transform="translate(-322.845 -235.446)" fill="#bc3535"/>
        </g>
        <path id="Path_5205" data-name="Path 5205" d="M324.017,232.713h-5.682a5.854,5.854,0,0,0,.406.968h5.276Z" transform="translate(-318.335 -232.713)" fill="#fff"/>
        <path id="Path_5206" data-name="Path 5206" d="M330.139,233.681h5.276a5.857,5.857,0,0,0,.406-.968h-5.682Z" transform="translate(-324.457 -232.713)" fill="#f2f2f2"/>
      </g>
      <g id="Group_1872" data-name="Group 1872" transform="translate(24.601 12.656)">
        <path id="Path_5207" data-name="Path 5207" d="M342.991,210.535v1.042h2.488Z" transform="translate(-339.958 -210.535)" fill="#3a1f0d"/>
        <rect id="Rectangle_1155" data-name="Rectangle 1155" width="2.488" height="1.042" transform="translate(0.545)" fill="#5b341a"/>
        <rect id="Rectangle_1156" data-name="Rectangle 1156" width="0.122" height="1.042" transform="translate(0.306)" fill="#5b341a"/>
        <rect id="Rectangle_1157" data-name="Rectangle 1157" width="0.122" height="1.042" fill="#5b341a"/>
      </g>
      <g id="Group_1873" data-name="Group 1873" transform="translate(13.709 15.101)">
        <path id="Path_5208" data-name="Path 5208" d="M315.039,216.218l-.525-.6a1.17,1.17,0,0,1,0,.9h.006a1.367,1.367,0,0,0-.458,1.017h2.746a1.355,1.355,0,0,0-1.772-1.307Z" transform="translate(-314.063 -215.615)" fill="#492913"/>
      </g>
      <g id="Group_1874" data-name="Group 1874" transform="translate(12.774 12.656)">
        <path id="Path_5209" data-name="Path 5209" d="M314.607,210.535v1.042h-2.488Z" transform="translate(-312.119 -210.535)" fill="#492913"/>
        <rect id="Rectangle_1158" data-name="Rectangle 1158" width="2.488" height="1.042" transform="translate(2.488)" fill="#3a1f0d"/>
        <rect id="Rectangle_1159" data-name="Rectangle 1159" width="0.122" height="1.042" transform="translate(5.092)" fill="#3a1f0d"/>
        <rect id="Rectangle_1160" data-name="Rectangle 1160" width="0.122" height="1.042" transform="translate(5.399)" fill="#3a1f0d"/>
      </g>
      <path id="Path_5210" data-name="Path 5210" d="M330.018,184.244h-.028v4.807A10.817,10.817,0,0,0,340.931,199.6V188.99A14.942,14.942,0,0,0,330.018,184.244Z" transform="translate(-308.614 -184.244)" fill="#3f2514"/>
      <path id="Path_5211" data-name="Path 5211" d="M318.174,184.244h.028v4.807A10.817,10.817,0,0,1,307.262,199.6V189.2A14.433,14.433,0,0,1,318.174,184.244Z" transform="translate(-296.827 -184.244)" fill="#492b16"/>
      <g id="Group_1875" data-name="Group 1875" transform="translate(0 58.319)">
        <rect id="Rectangle_1161" data-name="Rectangle 1161" width="19.669" height="7.815" fill="#fff"/>
        <path id="Path_5212" data-name="Path 5212" d="M285.583,329.446v-7.815h19.669v5.107l-2.015,2.708Z" transform="translate(-285.583 -313.817)" fill="#f9f6f4"/>
        <path id="Path_5213" data-name="Path 5213" d="M323.657,332.24h-2.586l.571,2.708Z" transform="translate(-303.988 -319.318)" fill="#e8e8e8"/>
        <rect id="Rectangle_1162" data-name="Rectangle 1162" width="12.581" height="0.9" transform="translate(6.346 1.508) rotate(90)" fill="#d3d3d3"/>
        <rect id="Rectangle_1163" data-name="Rectangle 1163" width="12.581" height="0.9" transform="translate(8.315 1.508) rotate(90)" fill="#d3d3d3"/>
        <rect id="Rectangle_1164" data-name="Rectangle 1164" width="12.581" height="0.9" transform="translate(10.285 1.508) rotate(90)" fill="#d3d3d3"/>
        <rect id="Rectangle_1165" data-name="Rectangle 1165" width="12.581" height="0.9" transform="translate(4.376 1.508) rotate(90)" fill="#d3d3d3"/>
        <rect id="Rectangle_1166" data-name="Rectangle 1166" width="6.117" height="0.9" transform="translate(14.223 7.972) rotate(90)" fill="#d3d3d3"/>
        <rect id="Rectangle_1167" data-name="Rectangle 1167" width="6.117" height="0.9" transform="translate(16.193 7.972) rotate(90)" fill="#d3d3d3"/>
        <rect id="Rectangle_1168" data-name="Rectangle 1168" width="6.117" height="0.9" transform="translate(12.254 7.972) rotate(90)" fill="#d3d3d3"/>
        <rect id="Rectangle_1169" data-name="Rectangle 1169" width="6.117" height="0.9" transform="translate(2.303 4.74) rotate(90)" fill="#d3d3d3"/>
      </g>
      <g id="Group_1876" data-name="Group 1876" transform="translate(5.293 48.138)">
        <path id="Path_5214" data-name="Path 5214" d="M300.022,334.937a1.34,1.34,0,0,1-1.2-.736l-1.638-3.238a1.34,1.34,0,1,1,2.391-1.21l1.638,3.238a1.34,1.34,0,0,1-1.195,1.945Z" transform="translate(-296.82 -307.466)" fill="#ff884d"/>
        <path id="Path_5215" data-name="Path 5215" d="M296.579,322.23v2.738l.02,5.143,1.076,2.193a.79.79,0,0,0,.64.41,1.281,1.281,0,0,0,.168.011,1.664,1.664,0,0,0,.723-.177,1.743,1.743,0,0,0,.335-.218h0a.98.98,0,0,0,.407-1.142l-.352-.719V325.5a.6.6,0,0,1,1.191,0v3.015c0,.5.572.893,1.3.893s1.3-.392,1.3-.893V322.23Z" transform="translate(-296.579 -303.946)" fill="#ff8e5c"/>
        <rect id="Rectangle_1170" data-name="Rectangle 1170" width="6.812" height="1.346" transform="translate(0 18.254)" fill="#fff"/>
        <path id="Path_5216" data-name="Path 5216" d="M303.391,301.295V284.247h-6.812v18.284h6.812Z" transform="translate(-296.579 -284.247)" fill="#374754"/>
      </g>
    </g>
    <g id="Group_1907" data-name="Group 1907" transform="translate(71.282 22.851)">
      <g id="Group_1878" data-name="Group 1878" transform="translate(16.355 65.651)">
        <path id="Path_5217" data-name="Path 5217" d="M234.085,329.306v44.965H242.5V336.453a1.191,1.191,0,0,1,1.191-1.191v-5.956Z" transform="translate(-234.085 -329.306)" fill="#8c6144"/>
        <path id="Path_5218" data-name="Path 5218" d="M254.035,329.306v5.956a1.191,1.191,0,0,1,1.191,1.191v37.818h8.412V329.306Z" transform="translate(-244.432 -329.306)" fill="#7a5439"/>
      </g>
      <g id="Group_1879" data-name="Group 1879" transform="translate(13.133 110.616)">
        <rect id="Rectangle_1171" data-name="Rectangle 1171" width="5.854" height="0.744" fill="#492913"/>
        <rect id="Rectangle_1172" data-name="Rectangle 1172" width="5.854" height="0.744" transform="translate(5.854)" fill="#3a2110"/>
      </g>
      <g id="Group_1880" data-name="Group 1880" transform="translate(13.133 107.092)">
        <path id="Path_5219" data-name="Path 5219" d="M230.963,415.4a3.583,3.583,0,0,0-3.571,3.524h5.854V415.4Z" transform="translate(-227.392 -415.396)" fill="#5b341a"/>
        <path id="Path_5220" data-name="Path 5220" d="M241.836,415.4h-2.283v3.524h5.854A3.583,3.583,0,0,0,241.836,415.4Z" transform="translate(-233.699 -415.396)" fill="#492913"/>
      </g>
      <g id="Group_1881" data-name="Group 1881" transform="translate(27.146 110.616)">
        <rect id="Rectangle_1173" data-name="Rectangle 1173" width="5.854" height="0.744" transform="translate(5.854)" fill="#492913"/>
        <rect id="Rectangle_1174" data-name="Rectangle 1174" width="5.854" height="0.744" fill="#3a2110"/>
      </g>
      <g id="Group_1882" data-name="Group 1882" transform="translate(27.145 107.092)">
        <path id="Path_5221" data-name="Path 5221" d="M270.946,415.4a3.583,3.583,0,0,1,3.571,3.524h-5.854V415.4Z" transform="translate(-262.809 -415.396)" fill="#5b341a"/>
        <path id="Path_5222" data-name="Path 5222" d="M260.073,415.4h2.283v3.524H256.5A3.583,3.583,0,0,1,260.073,415.4Z" transform="translate(-256.502 -415.396)" fill="#492913"/>
      </g>
      <g id="Group_1883" data-name="Group 1883" transform="translate(13.712)">
        <path id="Path_5223" data-name="Path 5223" d="M228.6,203.234v7.346c0,5.7,5.483,10.312,12.246,10.312h0V192.922C234.078,192.922,228.6,197.539,228.6,203.234Z" transform="translate(-228.595 -192.922)" fill="#754e2e"/>
        <path id="Path_5224" data-name="Path 5224" d="M254.091,192.923h-.056v27.971c6.763,0,12.246-4.617,12.246-10.312v-7.346c.519-5.529-4.373-5.077-4.373-5.077C261.257,194.409,257.842,192.937,254.091,192.923Z" transform="translate(-241.789 -192.922)" fill="#694728"/>
      </g>
      <path id="Path_5225" data-name="Path 5225" d="M231.283,232.321a3,3,0,1,1-3-3A3,3,0,0,1,231.283,232.321Z" transform="translate(-213.169 -211.801)" fill="#ff884d"/>
      <path id="Path_5226" data-name="Path 5226" d="M276.383,232.321a3,3,0,1,1-3-3A3,3,0,0,1,276.383,232.321Z" transform="translate(-236.559 -211.801)" fill="#f58243"/>
      <g id="Group_1885" data-name="Group 1885" transform="translate(0 2.195)">
        <g id="Group_1884" data-name="Group 1884" transform="translate(16.504 63.457)">
          <rect id="Rectangle_1175" data-name="Rectangle 1175" width="9.455" height="1.191" transform="translate(9.454)" fill="#664833"/>
          <rect id="Rectangle_1176" data-name="Rectangle 1176" width="9.455" height="1.191" fill="#72513b"/>
        </g>
        <rect id="Rectangle_1177" data-name="Rectangle 1177" width="10.441" height="31.506" transform="translate(15.517 31.951)" fill="#996948"/>
        <path id="Path_5227" data-name="Path 5227" d="M203.584,200.206a1.345,1.345,0,0,0-1.2.737l-1.642,3.248a1.344,1.344,0,0,0,2.4,1.214l1.642-3.248a1.344,1.344,0,0,0-1.2-1.951Z" transform="translate(-200.362 -198.894)" fill="#ff884d"/>
        <path id="Path_5228" data-name="Path 5228" d="M200.132,208.006v-2.746l.02-5.157,1.079-2.2a.793.793,0,0,1,.642-.412,1.283,1.283,0,0,1,.168-.011,1.657,1.657,0,0,1,.724.178,1.734,1.734,0,0,1,.336.218h0a.983.983,0,0,1,.409,1.146l-.354.72v4.987a.6.6,0,1,0,1.195,0v-3.023c0-.5.574-.9,1.306-.9s1.306.393,1.306.9v6.3Z" transform="translate(-200.121 -197.481)" fill="#ff8e5c"/>
        <rect id="Rectangle_1178" data-name="Rectangle 1178" width="6.831" height="1.349" transform="translate(6.842 10.555) rotate(180)" fill="#fff"/>
        <path id="Path_5229" data-name="Path 5229" d="M215.791,261.421,200.11,251.1v-8.672l15.681,10.32Z" transform="translate(-200.11 -220.792)" fill="#996948"/>
        <path id="Path_5230" data-name="Path 5230" d="M206.952,219.345h-6.831v17.043h-.011c0,.067.007.133.011.2v.163h.009a4.352,4.352,0,0,0,4.32,3.971h2.5Z" transform="translate(-200.11 -208.82)" fill="#996948"/>
        <path id="Path_5231" data-name="Path 5231" d="M203.342,210.273v-1.361a.6.6,0,0,1-.6-.6v-3.023c0-.5-.574-.9-1.306-.9s-1.306.393-1.306.9v4.982Z" transform="translate(-200.121 -201.067)" fill="#ff8e5c"/>
        <rect id="Rectangle_1179" data-name="Rectangle 1179" width="10.441" height="31.506" transform="translate(36.4 63.457) rotate(180)" fill="#8c6040"/>
        <path id="Path_5232" data-name="Path 5232" d="M299.821,200.206a1.344,1.344,0,0,1,1.2.737l1.642,3.248a1.344,1.344,0,0,1-2.4,1.214l-1.642-3.248a1.344,1.344,0,0,1,1.2-1.951Z" transform="translate(-251.126 -198.894)" fill="#ff884d"/>
        <path id="Path_5233" data-name="Path 5233" d="M300.579,208.006v-2.746l-.019-5.157-1.079-2.2a.793.793,0,0,0-.642-.412,1.278,1.278,0,0,0-.168-.011,1.659,1.659,0,0,0-.724.178,1.75,1.75,0,0,0-.336.218h0a.984.984,0,0,0-.409,1.146l.354.72v4.987a.6.6,0,1,1-1.195,0v-3.023c0-.5-.574-.9-1.306-.9s-1.306.393-1.306.9v6.3Z" transform="translate(-248.673 -197.481)" fill="#ff8e5c"/>
        <rect id="Rectangle_1180" data-name="Rectangle 1180" width="6.831" height="1.349" transform="translate(45.075 9.206)" fill="#fff"/>
        <path id="Path_5234" data-name="Path 5234" d="M275.386,261.421l15.681-10.32v-8.672l-15.681,10.32Z" transform="translate(-239.15 -220.792)" fill="#8c6040"/>
        <path id="Path_5235" data-name="Path 5235" d="M293.748,219.345h6.831v17.043h.011c0,.067-.007.133-.011.2v.163h-.009a4.352,4.352,0,0,1-4.32,3.971h-2.5Z" transform="translate(-248.673 -208.82)" fill="#8c6040"/>
        <path id="Path_5236" data-name="Path 5236" d="M301.27,210.273v-1.361a.6.6,0,0,0,.6-.6v-3.023c0-.5.574-.9,1.306-.9s1.306.393,1.306.9v4.982Z" transform="translate(-252.575 -201.067)" fill="#ff8e5c"/>
      </g>
      <g id="Group_1895" data-name="Group 1895" transform="translate(16.536 26.27)">
        <g id="Group_1886" data-name="Group 1886" transform="translate(5.105 8.172)">
          <rect id="Rectangle_1181" data-name="Rectangle 1181" width="4.318" height="31.209" fill="#fff"/>
          <rect id="Rectangle_1182" data-name="Rectangle 1182" width="4.318" height="31.209" transform="translate(4.318)" fill="#f2f2f2"/>
        </g>
        <g id="Group_1888" data-name="Group 1888" transform="translate(7.264 11.277)">
          <path id="Path_5237" data-name="Path 5237" d="M249.551,293.912l2.159,3.344V272.351Z" transform="translate(-249.551 -271.663)" fill="#e83a2d"/>
          <path id="Path_5238" data-name="Path 5238" d="M256.194,293.912l-2.159,3.344V272.351Z" transform="translate(-251.877 -271.663)" fill="#e02b22"/>
          <g id="Group_1887" data-name="Group 1887" transform="translate(0.29)">
            <path id="Path_5239" data-name="Path 5239" d="M250.154,272.791l1.869,1.869v-3.737Z" transform="translate(-250.154 -270.922)" fill="#f94028"/>
            <path id="Path_5240" data-name="Path 5240" d="M254.035,270.922v3.737l1.869-1.869Z" transform="translate(-252.167 -270.922)" fill="#ef2f20"/>
          </g>
        </g>
        <g id="Group_1889" data-name="Group 1889" transform="translate(2.236)">
          <path id="Path_5241" data-name="Path 5241" d="M246.293,260.222l-7.186,1.588v-7.564a6.978,6.978,0,0,1,7.186-6.749Z" transform="translate(-239.107 -247.496)" fill="#e2e2e2"/>
          <path id="Path_5242" data-name="Path 5242" d="M254.035,260.222l7.186,1.588v-7.564a6.978,6.978,0,0,0-7.186-6.749Z" transform="translate(-246.849 -247.496)" fill="#d3d3d3"/>
        </g>
        <g id="Group_1890" data-name="Group 1890" transform="translate(5.105)">
          <path id="Path_5243" data-name="Path 5243" d="M254.035,247.5h0v12.656h0a4.193,4.193,0,0,0,4.317-4.056v-4.545A4.192,4.192,0,0,0,254.035,247.5Z" transform="translate(-249.718 -247.496)" fill="#f58243"/>
          <path id="Path_5244" data-name="Path 5244" d="M245.066,251.551V256.1a4.193,4.193,0,0,0,4.317,4.056V247.5A4.192,4.192,0,0,0,245.066,251.551Z" transform="translate(-245.066 -247.496)" fill="#ff884d"/>
        </g>
        <g id="Group_1891" data-name="Group 1891" transform="translate(0 3.069)">
          <path id="Path_5245" data-name="Path 5245" d="M234.461,261.736v9.918a8.8,8.8,0,0,0,5.1,7.866V253.871A8.8,8.8,0,0,0,234.461,261.736Z" transform="translate(-234.461 -253.871)" fill="#744b25"/>
        </g>
        <g id="Group_1892" data-name="Group 1892" transform="translate(2.97 28.645)">
          <path id="Path_5246" data-name="Path 5246" d="M240.63,310.294v4.149a3.681,3.681,0,0,0,2.135,3.29V307A3.681,3.681,0,0,0,240.63,310.294Z" transform="translate(-240.63 -307.004)" fill="#744b25"/>
        </g>
        <g id="Group_1893" data-name="Group 1893" transform="translate(13.74 28.645)">
          <path id="Path_5247" data-name="Path 5247" d="M265.14,310.294v4.149a3.681,3.681,0,0,1-2.135,3.29V307A3.681,3.681,0,0,1,265.14,310.294Z" transform="translate(-263.005 -307.004)" fill="#744b25"/>
        </g>
        <g id="Group_1894" data-name="Group 1894" transform="translate(13.74 3.069)">
          <path id="Path_5248" data-name="Path 5248" d="M268.11,261.736v9.918a8.8,8.8,0,0,1-5.1,7.866V253.871A8.8,8.8,0,0,1,268.11,261.736Z" transform="translate(-263.005 -253.871)" fill="#704725"/>
        </g>
      </g>
      <g id="Group_1896" data-name="Group 1896" transform="translate(15.089 5.798)">
        <path id="Path_5249" data-name="Path 5249" d="M242.325,233.4a10.682,10.682,0,0,1-10.869-10.485v-7.468a10.682,10.682,0,0,1,10.869-10.484Z" transform="translate(-231.456 -204.967)" fill="#ff8e5c"/>
        <path id="Path_5250" data-name="Path 5250" d="M252.111,204.967v12.288l-1.787,4.865h1.786V233.4h0A10.682,10.682,0,0,0,262.98,222.92v-7.468A10.724,10.724,0,0,0,252.111,204.967Z" transform="translate(-241.242 -204.967)" fill="#ff8548"/>
      </g>
      <g id="Group_1897" data-name="Group 1897" transform="translate(15.089 23.736)">
        <path id="Path_5251" data-name="Path 5251" d="M231.456,242.231v.015a10.682,10.682,0,0,0,10.869,10.485v-10.5Z" transform="translate(-231.456 -242.231)" fill="#ef7e45"/>
        <path id="Path_5252" data-name="Path 5252" d="M254.035,242.231v10.5h0A10.682,10.682,0,0,0,264.9,242.246v-.015Z" transform="translate(-243.166 -242.231)" fill="#ed7d45"/>
      </g>
      <g id="Group_1898" data-name="Group 1898" transform="translate(18.63 16.435)">
        <path id="Path_5253" data-name="Path 5253" d="M241.663,227.065v2.746a1.373,1.373,0,1,0,0-2.746Z" transform="translate(-240.29 -227.065)" fill="#694728"/>
        <path id="Path_5254" data-name="Path 5254" d="M238.811,228.438a1.373,1.373,0,0,0,1.373,1.373v-2.746A1.373,1.373,0,0,0,238.811,228.438Z" transform="translate(-238.811 -227.065)" fill="#754e2e"/>
      </g>
      <g id="Group_1899" data-name="Group 1899" transform="translate(30.541 16.435)">
        <path id="Path_5255" data-name="Path 5255" d="M266.408,227.065v2.746a1.373,1.373,0,0,0,0-2.746Z" transform="translate(-265.035 -227.065)" fill="#694728"/>
        <path id="Path_5256" data-name="Path 5256" d="M263.555,228.438a1.373,1.373,0,0,0,1.373,1.373v-2.746A1.373,1.373,0,0,0,263.555,228.438Z" transform="translate(-263.555 -227.065)" fill="#754e2e"/>
      </g>
      <g id="Group_1902" data-name="Group 1902" transform="translate(20.276 24.955)">
        <g id="Group_1900" data-name="Group 1900">
          <path id="Path_5257" data-name="Path 5257" d="M242.231,244.764a5.963,5.963,0,0,0,2.171,3.016,4.4,4.4,0,0,1,3.512-1.7v-1.315Z" transform="translate(-242.231 -244.764)" fill="#a32929"/>
          <path id="Path_5258" data-name="Path 5258" d="M254.036,244.764v1.315a4.4,4.4,0,0,1,3.511,1.7,5.963,5.963,0,0,0,2.171-3.016Z" transform="translate(-248.353 -244.764)" fill="#a01c1c"/>
        </g>
        <g id="Group_1901" data-name="Group 1901" transform="translate(2.171 1.315)">
          <path id="Path_5259" data-name="Path 5259" d="M257.547,249.2a4.4,4.4,0,0,0-3.511-1.7h0v2.854h0A5.921,5.921,0,0,0,257.547,249.2Z" transform="translate(-250.524 -247.496)" fill="#b72323"/>
          <path id="Path_5260" data-name="Path 5260" d="M246.741,249.2a5.921,5.921,0,0,0,3.511,1.153V247.5A4.4,4.4,0,0,0,246.741,249.2Z" transform="translate(-246.741 -247.496)" fill="#bc3535"/>
        </g>
        <path id="Path_5261" data-name="Path 5261" d="M247.914,244.764h-5.683a5.908,5.908,0,0,0,.406.968h5.277Z" transform="translate(-242.231 -244.764)" fill="#fff"/>
        <path id="Path_5262" data-name="Path 5262" d="M254.036,245.732h5.276a5.909,5.909,0,0,0,.406-.968h-5.682Z" transform="translate(-248.353 -244.764)" fill="#f2f2f2"/>
      </g>
      <g id="Group_1903" data-name="Group 1903" transform="translate(29.448 14.279)">
        <rect id="Rectangle_1183" data-name="Rectangle 1183" width="2.488" height="1.042" transform="translate(2.488)" fill="#694728"/>
        <rect id="Rectangle_1184" data-name="Rectangle 1184" width="2.488" height="1.042" fill="#754e2e"/>
      </g>
      <g id="Group_1904" data-name="Group 1904" transform="translate(17.515 14.279)">
        <rect id="Rectangle_1185" data-name="Rectangle 1185" width="2.488" height="1.042" transform="translate(2.488)" fill="#694728"/>
        <rect id="Rectangle_1186" data-name="Rectangle 1186" width="2.488" height="1.042" fill="#754e2e"/>
      </g>
      <g id="Group_1905" data-name="Group 1905" transform="translate(16.544 5.669)">
        <path id="Path_5263" data-name="Path 5263" d="M254.01,204.7v4.347h.012c5.2,0,9.414-1.906,9.414-4.258,0-.03,0-.059-.005-.089Z" transform="translate(-244.608 -204.699)" fill="#694728"/>
        <path id="Path_5264" data-name="Path 5264" d="M234.484,204.7c0,.03,0,.059,0,.089,0,2.35,4.208,4.255,9.4,4.258V204.7Z" transform="translate(-234.479 -204.699)" fill="#754e2e"/>
      </g>
      <g id="Group_1906" data-name="Group 1906" transform="translate(18.175 22.99)">
        <path id="Path_5265" data-name="Path 5265" d="M261.818,242.646a1.964,1.964,0,0,0-1.964-1.964h-5.819v1.965h7.783Z" transform="translate(-246.252 -240.682)" fill="#694728"/>
        <path id="Path_5266" data-name="Path 5266" d="M239.83,240.682a1.964,1.964,0,0,0-1.964,1.964h7.783v-1.965Z" transform="translate(-237.866 -240.682)" fill="#754e2e"/>
      </g>
    </g>
  </g>
</svg>
